<svg xmlns="http://www.w3.org/2000/svg" xmlns:xlink="http://www.w3.org/1999/xlink" width="500" zoomAndPan="magnify" viewBox="0 0 375 374.999991" height="500" preserveAspectRatio="xMidYMid meet" version="1.0"><defs><g/><clipPath id="12e7d3effd"><path d="M 134.535156 221 L 181 221 L 181 248.125 L 134.535156 248.125 Z M 134.535156 221 " clip-rule="nonzero"/></clipPath><clipPath id="0fbacedcfc"><path d="M 194 221 L 240.285156 221 L 240.285156 248.125 L 194 248.125 Z M 194 221 " clip-rule="nonzero"/></clipPath></defs><g fill="#000000" fill-opacity="1"><g transform="translate(85.422349, 283.470217)"><g><path d="M 8.703125 -9.765625 L 9.5625 -24.078125 L 0.96875 -24.078125 L 0.96875 0 L 20.640625 0 L 20.640625 -10.25 Z M 8.703125 -9.765625 "/></g></g></g><g fill="#000000" fill-opacity="1"><g transform="translate(106.368509, 283.470217)"><g><path d="M 10.734375 0.515625 C 13.5625 0.515625 16.375 -0.109375 18 -0.828125 L 17.78125 -7.4375 C 16.171875 -6.640625 14.484375 -6.234375 12 -6.234375 C 9.5 -6.234375 7.328125 -6.703125 7.265625 -7.703125 L 18.78125 -7.703125 C 18.859375 -7.953125 18.953125 -8.390625 18.953125 -9.125 C 18.953125 -14.34375 15.6875 -17.71875 9.84375 -17.71875 C 4.15625 -17.71875 0.40625 -14.3125 0.40625 -8.671875 C 0.40625 -3.0625 4.0625 0.515625 10.734375 0.515625 Z M 7.21875 -9.015625 C 7.53125 -10.53125 8.640625 -11.109375 9.875 -11.109375 C 11.3125 -11.109375 12.390625 -10.359375 12.484375 -9.015625 Z M 7.21875 -9.015625 "/></g></g></g><g fill="#000000" fill-opacity="1"><g transform="translate(125.422972, 283.470217)"><g><path d="M 9.765625 0.515625 C 11.421875 0.515625 13.109375 0.140625 14.375 -0.375 L 14.375 -7.78125 C 13.59375 -7.5 12.796875 -7.390625 12.1875 -7.390625 C 10.453125 -7.390625 10.015625 -8.125 10.015625 -8.78125 L 10.015625 -9.296875 L 14.546875 -9.296875 L 14.546875 -17.203125 L 10.015625 -17.203125 L 10.015625 -22.578125 L 5.296875 -22.578125 C 5.296875 -19.296875 4.09375 -17.203125 0.140625 -17.203125 L 0.140625 -9.296875 L 2.828125 -9.296875 L 2.828125 -4.75 C 2.828125 -2.578125 3.609375 0.515625 9.765625 0.515625 Z M 9.765625 0.515625 "/></g></g></g><g fill="#000000" fill-opacity="1"><g transform="translate(139.902969, 283.470217)"><g><path d="M 4.890625 -11.796875 C 7.328125 -13.171875 9.390625 -15.9375 9.390625 -19.234375 C 9.390625 -21.953125 7.640625 -23.53125 5.375 -23.53125 C 3.203125 -23.53125 1.546875 -22.125 1.546875 -20.03125 C 1.546875 -18 3 -16.6875 4.75 -16.6875 C 5.09375 -16.6875 5.40625 -16.75 5.609375 -16.828125 C 5.328125 -15.859375 3.890625 -14.546875 2.71875 -13.96875 Z M 4.890625 -11.796875 "/></g></g></g><g fill="#000000" fill-opacity="1"><g transform="translate(150.393201, 283.470217)"><g><path d="M 8.640625 0.515625 C 14.515625 0.515625 18.0625 -1.34375 18.0625 -4.8125 C 18.0625 -10.734375 7.328125 -9.25 7.328125 -10.328125 C 7.328125 -10.9375 8.328125 -11.015625 10.046875 -11.015625 C 12.625 -11.015625 15.109375 -10.25 16.453125 -9.46875 L 16.375 -16.65625 C 14.109375 -17.375 11.703125 -17.71875 9.328125 -17.71875 C 3.4375 -17.71875 0.28125 -15.828125 0.28125 -12.765625 C 0.28125 -6.671875 11.015625 -8.78125 11.015625 -7.4375 C 11.015625 -6.703125 9.984375 -6.671875 7.984375 -6.671875 C 5.953125 -6.671875 2.6875 -7.328125 0.28125 -8.5 L 0.28125 -0.625 C 2.375 -0.03125 6.4375 0.515625 8.640625 0.515625 Z M 8.640625 0.515625 "/></g></g></g><g fill="#000000" fill-opacity="1"><g transform="translate(168.41583, 283.470217)"><g/></g></g><g fill="#000000" fill-opacity="1"><g transform="translate(175.535411, 283.470217)"><g><path d="M 14.453125 0.515625 C 17.515625 0.515625 20.953125 0.03125 22.984375 -0.578125 L 22.921875 -11.96875 C 21.1875 -10.9375 18.03125 -10.15625 15.0625 -10.15625 C 11.25 -10.15625 8.46875 -10.421875 8.46875 -12.078125 C 8.46875 -13.5625 10.875 -13.96875 14.546875 -13.96875 C 17.3125 -13.96875 20.234375 -13.28125 21.84375 -12.359375 L 22.46875 -23.5625 C 20.640625 -24.078125 17.828125 -24.59375 14.546875 -24.59375 C 6.40625 -24.59375 0.625 -20.921875 0.625 -12 C 0.625 -3.203125 6.328125 0.515625 14.453125 0.515625 Z M 14.453125 0.515625 "/></g></g></g><g fill="#000000" fill-opacity="1"><g transform="translate(199.164346, 283.470217)"><g><path d="M 7.78125 -5.296875 C 7.5625 -7.5625 9.046875 -9.5625 12.140625 -9.5625 C 13.734375 -9.5625 15.453125 -8.421875 16.171875 -7.21875 L 16.71875 -16.65625 C 16.109375 -17.3125 15.03125 -17.71875 13.765625 -17.71875 C 10.53125 -17.71875 8.53125 -14.515625 8.1875 -10.671875 L 7.703125 -10.671875 L 8.359375 -17.203125 L 0.75 -17.203125 L 0.75 0 L 8.296875 0 Z M 7.78125 -5.296875 "/></g></g></g><g fill="#000000" fill-opacity="1"><g transform="translate(215.948776, 283.470217)"><g><path d="M 10.734375 0.515625 C 13.5625 0.515625 16.375 -0.109375 18 -0.828125 L 17.78125 -7.4375 C 16.171875 -6.640625 14.484375 -6.234375 12 -6.234375 C 9.5 -6.234375 7.328125 -6.703125 7.265625 -7.703125 L 18.78125 -7.703125 C 18.859375 -7.953125 18.953125 -8.390625 18.953125 -9.125 C 18.953125 -14.34375 15.6875 -17.71875 9.84375 -17.71875 C 4.15625 -17.71875 0.40625 -14.3125 0.40625 -8.671875 C 0.40625 -3.0625 4.0625 0.515625 10.734375 0.515625 Z M 7.21875 -9.015625 C 7.53125 -10.53125 8.640625 -11.109375 9.875 -11.109375 C 11.3125 -11.109375 12.390625 -10.359375 12.484375 -9.015625 Z M 7.21875 -9.015625 "/></g></g></g><g fill="#000000" fill-opacity="1"><g transform="translate(235.003234, 283.470217)"><g><path d="M 6.1875 0.515625 C 8.8125 0.515625 11.53125 -1.484375 11.625 -4.609375 L 12.1875 -4.609375 L 11.53125 0 L 20.84375 0 L 20.84375 -7.21875 L 18.609375 -7.21875 L 19.03125 -9.1875 C 20.234375 -14.625 15.34375 -17.71875 8.359375 -17.71875 C 5.84375 -17.71875 3.609375 -17.375 1.4375 -16.65625 L 1.4375 -9.875 C 2.953125 -10.625 5.015625 -11.140625 6.8125 -11.140625 C 9.8125 -11.140625 12.078125 -9.734375 12.078125 -8.15625 L 12.078125 -7.734375 L 11.59375 -7.734375 C 11.25 -9.125 9.5 -10.28125 6.78125 -10.28125 C 2.890625 -10.28125 0.3125 -8.125 0.3125 -4.84375 C 0.3125 -1.203125 2.4375 0.515625 6.1875 0.515625 Z M 9.875 -5.375 C 8.390625 -5.375 7.5 -5.71875 7.5 -6.265625 C 7.5 -6.84375 8.390625 -7.15625 9.875 -7.15625 C 11.359375 -7.15625 12.28125 -6.84375 12.28125 -6.265625 C 12.28125 -5.71875 11.359375 -5.375 9.875 -5.375 Z M 9.875 -5.375 "/></g></g></g><g fill="#000000" fill-opacity="1"><g transform="translate(255.708639, 283.470217)"><g><path d="M 9.765625 0.515625 C 11.421875 0.515625 13.109375 0.140625 14.375 -0.375 L 14.375 -7.78125 C 13.59375 -7.5 12.796875 -7.390625 12.1875 -7.390625 C 10.453125 -7.390625 10.015625 -8.125 10.015625 -8.78125 L 10.015625 -9.296875 L 14.546875 -9.296875 L 14.546875 -17.203125 L 10.015625 -17.203125 L 10.015625 -22.578125 L 5.296875 -22.578125 C 5.296875 -19.296875 4.09375 -17.203125 0.140625 -17.203125 L 0.140625 -9.296875 L 2.828125 -9.296875 L 2.828125 -4.75 C 2.828125 -2.578125 3.609375 0.515625 9.765625 0.515625 Z M 9.765625 0.515625 "/></g></g></g><g fill="#000000" fill-opacity="1"><g transform="translate(270.188641, 283.470217)"><g><path d="M 10.734375 0.515625 C 13.5625 0.515625 16.375 -0.109375 18 -0.828125 L 17.78125 -7.4375 C 16.171875 -6.640625 14.484375 -6.234375 12 -6.234375 C 9.5 -6.234375 7.328125 -6.703125 7.265625 -7.703125 L 18.78125 -7.703125 C 18.859375 -7.953125 18.953125 -8.390625 18.953125 -9.125 C 18.953125 -14.34375 15.6875 -17.71875 9.84375 -17.71875 C 4.15625 -17.71875 0.40625 -14.3125 0.40625 -8.671875 C 0.40625 -3.0625 4.0625 0.515625 10.734375 0.515625 Z M 7.21875 -9.015625 C 7.53125 -10.53125 8.640625 -11.109375 9.875 -11.109375 C 11.3125 -11.109375 12.390625 -10.359375 12.484375 -9.015625 Z M 7.21875 -9.015625 "/></g></g></g><g fill="#000000" fill-opacity="1"><g transform="translate(105.332504, 311.220215)"><g><path d="M 21.4375 -24.078125 L 0.6875 -24.078125 L 0.625 -13.453125 L 8.078125 -13.796875 L 6.46875 0 L 15.6875 0 L 14.03125 -13.796875 L 21.53125 -13.453125 Z M 21.4375 -24.078125 "/></g></g></g><g fill="#000000" fill-opacity="1"><g transform="translate(127.172928, 311.220215)"><g><path d="M 10.25 0.515625 C 16.453125 0.515625 20.15625 -2.890625 20.15625 -8.59375 C 20.15625 -14.3125 16.453125 -17.71875 10.25 -17.71875 C 4.09375 -17.71875 0.40625 -14.3125 0.40625 -8.59375 C 0.40625 -2.890625 4.09375 0.515625 10.25 0.515625 Z M 10.25 -7.265625 C 8.046875 -7.265625 6.875 -7.78125 6.875 -8.59375 C 6.875 -9.421875 8.046875 -9.984375 10.25 -9.984375 C 12.53125 -9.984375 13.6875 -9.421875 13.6875 -8.59375 C 13.6875 -7.78125 12.53125 -7.265625 10.25 -7.265625 Z M 10.25 -7.265625 "/></g></g></g><g fill="#000000" fill-opacity="1"><g transform="translate(147.431207, 311.220215)"><g><path d="M 5.015625 7.390625 C 10.046875 7.390625 10.84375 3.234375 12.90625 3.234375 C 14.421875 3.234375 13.796875 5.46875 13.25 6.875 L 20.578125 6.875 C 22.921875 -2 20.265625 -4.890625 15.515625 -4.890625 C 11.625 -4.890625 10.421875 -1.71875 8.046875 -1.71875 C 7.046875 -1.71875 6.265625 -2.484375 6.984375 -4.03125 L 7.53125 -5.234375 L 10.046875 -5.234375 C 15.515625 -5.234375 18.578125 -7.125 18.578125 -10.046875 C 18.578125 -11.453125 18.09375 -12.828125 16.578125 -13.9375 L 16.828125 -14.203125 L 21.78125 -9.640625 L 21.78125 -17.203125 C 17.890625 -17.484375 14.203125 -17.71875 10.046875 -17.71875 C 4.265625 -17.71875 0.28125 -15.3125 0.28125 -11.5625 C 0.28125 -8.671875 2.578125 -6.875 6.1875 -6.1875 L 6.0625 -5.8125 L 1.609375 -6.78125 L -0.140625 -1.0625 C -1.796875 3.921875 1.203125 7.390625 5.015625 7.390625 Z M 9.9375 -7.21875 C 8.25 -7.21875 7.21875 -7.734375 7.21875 -8.53125 C 7.21875 -9.359375 8.25 -9.875 9.9375 -9.875 C 11.65625 -9.875 12.65625 -9.359375 12.65625 -8.53125 C 12.65625 -7.734375 11.65625 -7.21875 9.9375 -7.21875 Z M 9.9375 -7.21875 "/></g></g></g><g fill="#000000" fill-opacity="1"><g transform="translate(169.202841, 311.220215)"><g><path d="M 10.734375 0.515625 C 13.5625 0.515625 16.375 -0.109375 18 -0.828125 L 17.78125 -7.4375 C 16.171875 -6.640625 14.484375 -6.234375 12 -6.234375 C 9.5 -6.234375 7.328125 -6.703125 7.265625 -7.703125 L 18.78125 -7.703125 C 18.859375 -7.953125 18.953125 -8.390625 18.953125 -9.125 C 18.953125 -14.34375 15.6875 -17.71875 9.84375 -17.71875 C 4.15625 -17.71875 0.40625 -14.3125 0.40625 -8.671875 C 0.40625 -3.0625 4.0625 0.515625 10.734375 0.515625 Z M 7.21875 -9.015625 C 7.53125 -10.53125 8.640625 -11.109375 9.875 -11.109375 C 11.3125 -11.109375 12.390625 -10.359375 12.484375 -9.015625 Z M 7.21875 -9.015625 "/></g></g></g><g fill="#000000" fill-opacity="1"><g transform="translate(188.257303, 311.220215)"><g><path d="M 9.765625 0.515625 C 11.421875 0.515625 13.109375 0.140625 14.375 -0.375 L 14.375 -7.78125 C 13.59375 -7.5 12.796875 -7.390625 12.1875 -7.390625 C 10.453125 -7.390625 10.015625 -8.125 10.015625 -8.78125 L 10.015625 -9.296875 L 14.546875 -9.296875 L 14.546875 -17.203125 L 10.015625 -17.203125 L 10.015625 -22.578125 L 5.296875 -22.578125 C 5.296875 -19.296875 4.09375 -17.203125 0.140625 -17.203125 L 0.140625 -9.296875 L 2.828125 -9.296875 L 2.828125 -4.75 C 2.828125 -2.578125 3.609375 0.515625 9.765625 0.515625 Z M 9.765625 0.515625 "/></g></g></g><g fill="#000000" fill-opacity="1"><g transform="translate(202.737306, 311.220215)"><g><path d="M 8.390625 0 L 7.90625 -5.984375 C 7.734375 -7.78125 8.5 -9.5625 10.21875 -9.5625 C 11.9375 -9.5625 12.28125 -7.953125 12.046875 -6.1875 L 11.359375 0 L 19.4375 0 L 19.4375 -10.625 C 19.4375 -15.03125 18 -17.71875 14 -17.71875 C 10.5 -17.71875 8.671875 -14.515625 8.328125 -10.671875 L 7.875 -10.671875 L 9.15625 -24.078125 L 0.75 -24.078125 L 0.75 0 Z M 8.390625 0 "/></g></g></g><g fill="#000000" fill-opacity="1"><g transform="translate(222.479668, 311.220215)"><g><path d="M 10.734375 0.515625 C 13.5625 0.515625 16.375 -0.109375 18 -0.828125 L 17.78125 -7.4375 C 16.171875 -6.640625 14.484375 -6.234375 12 -6.234375 C 9.5 -6.234375 7.328125 -6.703125 7.265625 -7.703125 L 18.78125 -7.703125 C 18.859375 -7.953125 18.953125 -8.390625 18.953125 -9.125 C 18.953125 -14.34375 15.6875 -17.71875 9.84375 -17.71875 C 4.15625 -17.71875 0.40625 -14.3125 0.40625 -8.671875 C 0.40625 -3.0625 4.0625 0.515625 10.734375 0.515625 Z M 7.21875 -9.015625 C 7.53125 -10.53125 8.640625 -11.109375 9.875 -11.109375 C 11.3125 -11.109375 12.390625 -10.359375 12.484375 -9.015625 Z M 7.21875 -9.015625 "/></g></g></g><g fill="#000000" fill-opacity="1"><g transform="translate(241.534125, 311.220215)"><g><path d="M 7.78125 -5.296875 C 7.5625 -7.5625 9.046875 -9.5625 12.140625 -9.5625 C 13.734375 -9.5625 15.453125 -8.421875 16.171875 -7.21875 L 16.71875 -16.65625 C 16.109375 -17.3125 15.03125 -17.71875 13.765625 -17.71875 C 10.53125 -17.71875 8.53125 -14.515625 8.1875 -10.671875 L 7.703125 -10.671875 L 8.359375 -17.203125 L 0.75 -17.203125 L 0.75 0 L 8.296875 0 Z M 7.78125 -5.296875 "/></g></g></g><g fill="#000000" fill-opacity="1"><g transform="translate(258.318555, 311.220215)"><g><path d="M 8.640625 -8.671875 L 9.8125 -24.078125 L 1.515625 -24.078125 L 2.828125 -8.671875 Z M 5.640625 0.453125 C 7.953125 0.453125 9.5 -0.96875 9.53125 -3.0625 C 9.53125 -5.125 7.953125 -6.578125 5.640625 -6.578125 C 3.34375 -6.578125 1.796875 -5.125 1.796875 -3.0625 C 1.796875 -0.96875 3.34375 0.453125 5.640625 0.453125 Z M 5.640625 0.453125 "/></g></g></g><path fill="#ffffff" d="M 168.824219 215.613281 C 160.886719 215.613281 158.839844 218.28125 158.839844 220.652344 C 158.839844 223.332031 162.253906 224.660156 162.359375 224.734375 L 175.289062 224.734375 C 175.394531 224.660156 178.808594 223.332031 178.808594 220.652344 C 178.808594 218.28125 176.761719 215.613281 168.824219 215.613281 Z M 168.824219 215.613281 " fill-opacity="1" fill-rule="nonzero"/><path fill="#000000" d="M 175.289062 225.285156 L 162.359375 225.285156 C 162.265625 225.285156 162.175781 225.261719 162.09375 225.214844 C 162.078125 225.207031 162.0625 225.199219 162.039062 225.1875 C 159.621094 224.074219 158.289062 222.464844 158.289062 220.652344 C 158.289062 218.5625 159.660156 215.0625 168.824219 215.0625 C 177.988281 215.0625 179.359375 218.5625 179.359375 220.652344 C 179.359375 222.464844 178.027344 224.074219 175.609375 225.1875 C 175.585938 225.199219 175.570312 225.207031 175.554688 225.214844 C 175.472656 225.261719 175.382812 225.285156 175.289062 225.285156 Z M 162.484375 224.183594 L 175.164062 224.183594 C 176.324219 223.644531 178.257812 222.476562 178.257812 220.652344 C 178.257812 217.757812 174.90625 216.164062 168.824219 216.164062 C 162.742188 216.164062 159.390625 217.757812 159.390625 220.652344 C 159.390625 222.476562 161.324219 223.644531 162.484375 224.183594 Z M 162.484375 224.183594 " fill-opacity="1" fill-rule="nonzero"/><path fill="#ffffff" d="M 164.070312 223.152344 C 164.070312 223.152344 158.734375 223.386719 158.820312 227.265625 C 158.871094 229.546875 159.289062 230.335938 159.289062 230.335938 C 159.289062 230.335938 157.386719 230.03125 156.203125 230.585938 C 156.203125 230.585938 153.132812 227.246094 145.769531 227.246094 C 137.941406 227.246094 135.105469 232.777344 135.105469 236.046875 C 135.105469 238.761719 136.433594 239.457031 136.433594 239.457031 C 136.433594 239.457031 135.570312 240.625 135.554688 242.4375 C 135.535156 244.25 140.167969 247.523438 153.632812 247.523438 C 163.976562 247.523438 167.730469 246.765625 167.730469 246.765625 L 168.382812 243.742188 L 169.539062 246.566406 C 169.539062 246.566406 177.925781 245.632812 179.113281 243.40625 C 180.167969 241.421875 178.105469 238.542969 178.105469 238.542969 C 178.105469 238.542969 179.566406 236.261719 179.566406 232.023438 C 179.566406 227.785156 178.785156 225.300781 177.875 223.980469 C 176.957031 222.652344 173.707031 222.003906 169.433594 222.6875 " fill-opacity="1" fill-rule="nonzero"/><g clip-path="url(#12e7d3effd)"><path fill="#000000" d="M 164.089844 223.578125 C 161.96875 223.972656 159.222656 224.777344 159.398438 227.40625 C 159.433594 228.300781 159.488281 229.25 159.777344 230.078125 C 159.777344 230.078125 159.203125 230.878906 159.203125 230.878906 C 158.980469 230.847656 158.722656 230.824219 158.484375 230.8125 C 158.007812 230.789062 157.515625 230.804688 157.054688 230.894531 C 156.617188 230.949219 156.167969 231.351562 155.800781 230.964844 C 152.597656 227.984375 146.109375 227.121094 141.996094 228.320312 C 139.121094 229.148438 136.6875 231.414062 135.90625 234.328125 C 135.5 235.773438 135.472656 237.964844 136.6875 238.96875 C 136.6875 238.96875 136.875 239.785156 136.875 239.785156 C 136.847656 239.824219 136.792969 239.90625 136.753906 239.976562 C 136.332031 240.722656 136.113281 241.597656 136.105469 242.457031 C 136.109375 242.480469 136.109375 242.503906 136.109375 242.527344 C 136.109375 242.527344 136.128906 242.609375 136.128906 242.609375 C 136.457031 243.511719 137.453125 244.078125 138.324219 244.542969 C 138.976562 244.871094 139.671875 245.136719 140.382812 245.371094 C 144.742188 246.730469 149.367188 246.953125 153.914062 246.972656 C 157.742188 246.960938 161.574219 246.878906 165.386719 246.515625 C 166.121094 246.441406 166.902344 246.351562 167.621094 246.226562 C 167.621094 246.226562 167.191406 246.648438 167.191406 246.648438 C 167.191406 246.648438 167.84375 243.625 167.84375 243.625 C 167.90625 243.328125 168.199219 243.140625 168.496094 243.203125 C 168.679688 243.242188 168.824219 243.371094 168.890625 243.535156 C 168.890625 243.535156 170.050781 246.355469 170.050781 246.355469 L 169.480469 246.019531 C 170.730469 245.867188 172.003906 245.65625 173.242188 245.398438 C 174.78125 245.054688 176.308594 244.691406 177.671875 243.960938 C 179.492188 243.117188 178.875 241.058594 178.121094 239.628906 C 177.980469 239.367188 177.816406 239.089844 177.660156 238.863281 C 177.476562 238.613281 177.566406 238.34375 177.714844 238.113281 C 178.558594 236.46875 178.882812 234.605469 178.972656 232.765625 C 178.996094 229.957031 178.90625 226.835938 177.464844 224.390625 C 176.183594 222.582031 171.535156 222.917969 169.496094 223.101562 C 168.96875 223.144531 168.863281 222.386719 169.367188 222.269531 C 171.839844 221.761719 174.621094 221.585938 177.046875 222.632812 C 177.578125 222.886719 178.097656 223.269531 178.410156 223.769531 C 180.007812 226.285156 180.183594 229.917969 180.125 232.8125 C 180.019531 234.886719 179.605469 237.015625 178.570312 238.839844 C 178.570312 238.839844 178.554688 238.222656 178.554688 238.222656 C 179.609375 239.824219 180.628906 242.160156 179.414062 243.949219 C 178.140625 245.464844 175.316406 246.039062 173.472656 246.476562 C 172.1875 246.742188 170.910156 246.957031 169.601562 247.113281 C 169.351562 247.140625 169.121094 247 169.03125 246.78125 C 169.035156 246.777344 167.871094 243.953125 167.871094 243.953125 C 167.871094 243.953125 168.917969 243.859375 168.917969 243.859375 C 168.917969 243.859375 168.265625 246.882812 168.265625 246.882812 C 168.222656 247.101562 168.046875 247.265625 167.835938 247.304688 C 164.757812 247.800781 161.648438 247.902344 158.542969 248.011719 C 152.359375 248.132812 146.019531 248.261719 140.042969 246.417969 C 138.320312 245.832031 135.648438 244.792969 135.058594 242.882812 C 134.953125 242.429688 135.019531 241.964844 135.078125 241.515625 C 135.21875 240.664062 135.5 239.847656 135.988281 239.128906 C 135.988281 239.128906 136.175781 239.945312 136.175781 239.945312 C 135.941406 239.820312 135.84375 239.703125 135.667969 239.53125 C 134.808594 238.605469 134.554688 237.253906 134.554688 236.054688 C 134.59375 233.335938 136.039062 230.761719 138.140625 229.089844 C 141.308594 226.5625 145.605469 226.375 149.453125 226.996094 C 151.542969 227.363281 153.625 228.050781 155.398438 229.242188 C 155.839844 229.539062 156.222656 229.828125 156.605469 230.214844 C 156.605469 230.214844 155.96875 230.089844 155.96875 230.089844 C 157.101562 229.609375 158.207031 229.65625 159.375 229.792969 C 159.375 229.792969 158.804688 230.59375 158.804688 230.59375 C 158.773438 230.535156 158.761719 230.507812 158.746094 230.472656 C 158.410156 229.617188 158.316406 228.683594 158.261719 227.78125 C 158.179688 226.785156 158.328125 225.734375 158.9375 224.910156 C 159.816406 223.710938 161.25 223.089844 162.660156 222.832031 C 163.121094 222.75 163.566406 222.710938 164.054688 222.730469 C 164.289062 222.738281 164.472656 222.933594 164.464844 223.167969 C 164.457031 223.382812 164.292969 223.550781 164.089844 223.578125 Z M 164.089844 223.578125 " fill-opacity="1" fill-rule="nonzero"/></g><path fill="#000000" d="M 160.097656 242.125 C 139.699219 242.125 136.265625 240.007812 136.128906 239.914062 C 135.875 239.746094 135.804688 239.40625 135.972656 239.152344 C 136.140625 238.902344 136.476562 238.832031 136.726562 238.992188 C 136.886719 239.085938 140.410156 241.023438 160.097656 241.023438 C 171.347656 241.023438 177.808594 238.070312 177.875 238.042969 C 178.148438 237.914062 178.476562 238.03125 178.605469 238.308594 C 178.734375 238.582031 178.617188 238.910156 178.339844 239.039062 C 178.070312 239.164062 171.613281 242.125 160.097656 242.125 Z M 160.097656 242.125 " fill-opacity="1" fill-rule="nonzero"/><path fill="#000000" d="M 156.566406 230.171875 C 157.675781 231.1875 158.445312 232.546875 158.816406 233.996094 C 158.941406 234.476562 159 234.96875 159.023438 235.464844 C 159.039062 235.703125 158.855469 235.910156 158.613281 235.925781 C 158.382812 235.9375 158.1875 235.769531 158.15625 235.550781 C 158.0625 235.117188 157.976562 234.691406 157.828125 234.28125 C 157.429688 233.058594 156.730469 231.921875 155.835938 231 C 155.3125 230.503906 156.007812 229.714844 156.566406 230.171875 Z M 156.566406 230.171875 " fill-opacity="1" fill-rule="nonzero"/><path fill="#000000" d="M 159.09375 229.757812 C 161.539062 230.027344 163.179688 232.332031 163.777344 234.550781 C 163.90625 234.988281 163.289062 235.242188 163.074219 234.839844 C 162.433594 233.484375 161.59375 232.125 160.277344 231.351562 C 159.871094 231.101562 159.410156 230.921875 158.949219 230.839844 C 158.292969 230.6875 158.425781 229.726562 159.09375 229.757812 Z M 159.09375 229.757812 " fill-opacity="1" fill-rule="nonzero"/><path fill="#000000" d="M 176.992188 245.441406 C 176.941406 245.441406 176.886719 245.433594 176.835938 245.417969 C 176.542969 245.332031 176.378906 245.027344 176.464844 244.734375 C 176.902344 243.242188 175.980469 240.453125 175.589844 239.503906 C 175.476562 239.222656 175.609375 238.902344 175.890625 238.785156 C 176.171875 238.667969 176.492188 238.804688 176.609375 239.085938 C 176.671875 239.238281 178.15625 242.875 177.519531 245.046875 C 177.449219 245.285156 177.230469 245.441406 176.992188 245.441406 Z M 176.992188 245.441406 " fill-opacity="1" fill-rule="nonzero"/><path fill="#000000" d="M 173.074219 246.546875 C 173.0625 246.546875 173.046875 246.542969 173.03125 246.542969 C 172.730469 246.519531 172.5 246.257812 172.523438 245.953125 C 172.703125 243.578125 171.484375 240.632812 171.472656 240.601562 C 171.355469 240.324219 171.488281 240 171.769531 239.882812 C 172.050781 239.765625 172.371094 239.898438 172.488281 240.179688 C 172.542969 240.308594 173.820312 243.394531 173.621094 246.035156 C 173.601562 246.324219 173.359375 246.546875 173.074219 246.546875 Z M 173.074219 246.546875 " fill-opacity="1" fill-rule="nonzero"/><path fill="#000000" d="M 171.199219 246.691406 C 171.1875 246.691406 171.171875 246.6875 171.160156 246.6875 C 170.855469 246.664062 170.628906 246.402344 170.652344 246.097656 C 170.828125 243.71875 169.691406 240.976562 169.679688 240.949219 C 169.5625 240.671875 169.695312 240.347656 169.976562 240.230469 C 170.253906 240.113281 170.578125 240.242188 170.695312 240.523438 C 170.746094 240.644531 171.949219 243.539062 171.75 246.179688 C 171.726562 246.46875 171.484375 246.691406 171.199219 246.691406 Z M 171.199219 246.691406 " fill-opacity="1" fill-rule="nonzero"/><path fill="#000000" d="M 160.480469 247.945312 C 160.234375 247.945312 160.007812 247.777344 159.945312 247.523438 C 159.382812 245.203125 159.65625 241.679688 159.667969 241.53125 C 159.691406 241.226562 159.953125 241.003906 160.261719 241.027344 C 160.5625 241.050781 160.789062 241.316406 160.765625 241.621094 C 160.761719 241.652344 160.492188 245.117188 161.015625 247.265625 C 161.089844 247.558594 160.90625 247.855469 160.613281 247.929688 C 160.566406 247.941406 160.523438 247.945312 160.480469 247.945312 Z M 160.480469 247.945312 " fill-opacity="1" fill-rule="nonzero"/><path fill="#000000" d="M 149.96875 247.945312 C 149.691406 247.945312 149.457031 247.738281 149.421875 247.457031 C 149.082031 244.496094 149.644531 241.589844 149.671875 241.46875 C 149.730469 241.171875 150.015625 240.976562 150.316406 241.035156 C 150.613281 241.09375 150.808594 241.382812 150.75 241.683594 C 150.746094 241.710938 150.195312 244.546875 150.515625 247.332031 C 150.550781 247.632812 150.335938 247.90625 150.03125 247.941406 C 150.011719 247.945312 149.988281 247.945312 149.96875 247.945312 Z M 149.96875 247.945312 " fill-opacity="1" fill-rule="nonzero"/><path fill="#000000" d="M 143.589844 247.164062 C 143.3125 247.164062 143.074219 246.957031 143.042969 246.679688 C 142.695312 243.65625 143.816406 241.066406 143.863281 240.957031 C 143.988281 240.679688 144.3125 240.554688 144.589844 240.675781 C 144.867188 240.800781 144.996094 241.125 144.871094 241.402344 C 144.855469 241.4375 143.828125 243.84375 144.136719 246.550781 C 144.171875 246.855469 143.957031 247.128906 143.652344 247.160156 C 143.632812 247.164062 143.609375 247.164062 143.589844 247.164062 Z M 143.589844 247.164062 " fill-opacity="1" fill-rule="nonzero"/><path fill="#000000" d="M 138.972656 245.992188 C 138.699219 245.992188 138.460938 245.785156 138.425781 245.503906 C 138.078125 242.445312 139.375 240.214844 139.433594 240.121094 C 139.585938 239.859375 139.925781 239.773438 140.1875 239.929688 C 140.449219 240.085938 140.535156 240.421875 140.378906 240.683594 C 140.363281 240.714844 139.214844 242.710938 139.523438 245.378906 C 139.554688 245.683594 139.339844 245.953125 139.039062 245.988281 C 139.015625 245.992188 138.996094 245.992188 138.972656 245.992188 Z M 138.972656 245.992188 " fill-opacity="1" fill-rule="nonzero"/><path fill="#000000" d="M 136.902344 244.882812 C 136.617188 244.882812 136.378906 244.667969 136.355469 244.378906 C 136.175781 242.261719 137.042969 239.808594 137.078125 239.707031 C 137.183594 239.421875 137.496094 239.273438 137.785156 239.375 C 138.070312 239.476562 138.21875 239.792969 138.117188 240.078125 C 138.109375 240.101562 137.292969 242.410156 137.449219 244.289062 C 137.476562 244.589844 137.25 244.855469 136.949219 244.882812 C 136.933594 244.882812 136.917969 244.886719 136.902344 244.886719 Z M 136.902344 244.882812 " fill-opacity="1" fill-rule="nonzero"/><path fill="#9b78df" d="M 181.613281 184.742188 C 185.578125 180.238281 180.226562 174.636719 176 177.484375 C 174.769531 178.4375 164.40625 187.324219 164.808594 215.898438 C 165.941406 215.714844 167.269531 215.613281 168.824219 215.613281 C 170.941406 215.613281 172.640625 215.804688 173.992188 216.128906 C 173.785156 203.894531 175.746094 196.125 177.507812 191.671875 C 179.523438 186.582031 181.683594 184.691406 181.703125 184.671875 C 181.648438 184.722656 181.613281 184.742188 181.613281 184.742188 Z M 181.613281 184.742188 " fill-opacity="1" fill-rule="nonzero"/><path fill="#000000" d="M 173.992188 216.679688 C 173.949219 216.679688 173.90625 216.671875 173.863281 216.664062 C 172.476562 216.332031 170.78125 216.164062 168.824219 216.164062 C 167.367188 216.164062 166.046875 216.257812 164.898438 216.441406 C 164.738281 216.46875 164.578125 216.421875 164.453125 216.320312 C 164.332031 216.21875 164.261719 216.066406 164.257812 215.90625 C 163.851562 187.027344 174.453125 177.984375 175.664062 177.046875 C 175.671875 177.042969 175.683594 177.035156 175.691406 177.027344 C 178.175781 175.355469 180.828125 176.328125 182.246094 177.9375 C 183.71875 179.617188 184.25 182.390625 182.207031 184.894531 C 182.175781 184.96875 182.125 185.035156 182.0625 185.089844 C 182.042969 185.105469 179.960938 186.976562 178.023438 191.871094 C 176.320312 196.175781 174.335938 203.871094 174.542969 216.117188 C 174.542969 216.289062 174.46875 216.449219 174.335938 216.558594 C 174.238281 216.636719 174.117188 216.679688 173.992188 216.679688 Z M 168.824219 215.0625 C 170.558594 215.0625 172.105469 215.191406 173.429688 215.445312 C 173.304688 203.417969 175.292969 195.78125 176.996094 191.46875 C 178.71875 187.113281 180.582031 185.015625 181.164062 184.429688 C 181.175781 184.414062 181.1875 184.394531 181.203125 184.378906 C 183.136719 182.183594 182.527344 179.929688 181.417969 178.667969 C 180.3125 177.410156 178.25 176.644531 176.320312 177.929688 C 175.097656 178.882812 165.109375 187.527344 165.351562 215.265625 C 166.402344 215.128906 167.566406 215.0625 168.824219 215.0625 Z M 168.824219 215.0625 " fill-opacity="1" fill-rule="nonzero"/><path fill="#ffffff" d="M 205.949219 215.613281 C 213.886719 215.613281 215.933594 218.28125 215.933594 220.652344 C 215.933594 223.332031 212.523438 224.660156 212.414062 224.734375 L 205.949219 224.734375 C 205.949219 224.734375 199.488281 224.734375 199.488281 224.734375 C 199.378906 224.660156 195.96875 223.332031 195.96875 220.652344 C 195.96875 218.28125 198.015625 215.613281 205.949219 215.613281 Z M 205.949219 215.613281 " fill-opacity="1" fill-rule="nonzero"/><path fill="#000000" d="M 212.414062 225.285156 L 199.484375 225.285156 C 199.390625 225.285156 199.300781 225.261719 199.21875 225.214844 C 199.207031 225.207031 199.1875 225.199219 199.164062 225.1875 C 196.746094 224.074219 195.417969 222.464844 195.417969 220.652344 C 195.417969 218.5625 196.785156 215.0625 205.949219 215.0625 C 215.117188 215.0625 216.484375 218.5625 216.484375 220.652344 C 216.484375 222.464844 215.152344 224.074219 212.738281 225.1875 C 212.714844 225.199219 212.695312 225.207031 212.683594 225.214844 C 212.601562 225.261719 212.507812 225.285156 212.414062 225.285156 Z M 199.609375 224.183594 L 212.289062 224.183594 C 213.453125 223.644531 215.382812 222.476562 215.382812 220.652344 C 215.382812 217.757812 212.03125 216.164062 205.949219 216.164062 C 199.867188 216.164062 196.515625 217.757812 196.515625 220.652344 C 196.515625 222.476562 198.449219 223.644531 199.609375 224.183594 Z M 199.609375 224.183594 " fill-opacity="1" fill-rule="nonzero"/><path fill="#ffffff" d="M 210.703125 223.152344 C 210.703125 223.152344 216.042969 223.386719 215.957031 227.265625 C 215.90625 229.546875 215.484375 230.335938 215.484375 230.335938 C 215.484375 230.335938 217.386719 230.03125 218.574219 230.585938 C 218.574219 230.585938 221.644531 227.246094 229.003906 227.246094 C 236.832031 227.246094 239.671875 232.777344 239.671875 236.046875 C 239.671875 238.761719 238.34375 239.457031 238.34375 239.457031 C 238.34375 239.457031 239.203125 240.625 239.222656 242.4375 C 239.238281 244.25 234.605469 247.523438 221.140625 247.523438 C 210.796875 247.523438 207.046875 246.765625 207.046875 246.765625 L 206.394531 243.742188 L 205.234375 246.566406 C 205.234375 246.566406 196.847656 245.632812 195.664062 243.40625 C 194.605469 241.421875 196.667969 238.542969 196.667969 238.542969 C 196.667969 238.542969 195.210938 236.261719 195.210938 232.023438 C 195.210938 227.785156 195.992188 225.300781 196.902344 223.980469 C 197.816406 222.652344 201.066406 222.003906 205.339844 222.6875 " fill-opacity="1" fill-rule="nonzero"/><g clip-path="url(#0fbacedcfc)"><path fill="#000000" d="M 210.722656 222.726562 C 213.054688 222.679688 215.929688 223.800781 216.445312 226.328125 C 216.550781 226.804688 216.535156 227.296875 216.511719 227.78125 C 216.449219 228.726562 216.367188 229.710938 215.972656 230.59375 C 215.972656 230.601562 215.398438 229.792969 215.398438 229.792969 C 216.570312 229.652344 217.671875 229.609375 218.808594 230.089844 C 218.808594 230.089844 218.167969 230.214844 218.167969 230.214844 C 221.425781 227.171875 226.871094 226.34375 231.160156 226.84375 C 235.199219 227.347656 238.84375 230.011719 239.933594 234.035156 C 240.441406 235.902344 240.40625 238.503906 238.765625 239.835938 C 238.714844 239.871094 238.683594 239.894531 238.597656 239.945312 L 238.785156 239.128906 C 239.273438 239.847656 239.554688 240.664062 239.695312 241.515625 C 239.753906 241.964844 239.820312 242.429688 239.714844 242.882812 C 239.125 244.796875 236.445312 245.832031 234.730469 246.417969 C 228.753906 248.261719 222.414062 248.132812 216.230469 248.011719 C 213.125 247.902344 210.015625 247.800781 206.9375 247.304688 C 206.714844 247.261719 206.546875 247.089844 206.507812 246.878906 C 206.507812 246.878906 205.855469 243.859375 205.855469 243.859375 L 206.902344 243.953125 C 206.902344 243.953125 205.742188 246.777344 205.742188 246.777344 C 205.644531 247.011719 205.410156 247.140625 205.171875 247.113281 C 203.863281 246.953125 202.585938 246.742188 201.300781 246.472656 C 199.453125 246.039062 196.636719 245.460938 195.359375 243.949219 C 194.144531 242.164062 195.164062 239.820312 196.21875 238.21875 C 196.21875 238.21875 196.203125 238.835938 196.203125 238.835938 C 195.167969 237.011719 194.757812 234.886719 194.648438 232.8125 C 194.589844 229.914062 194.765625 226.285156 196.363281 223.769531 C 196.679688 223.273438 197.195312 222.886719 197.726562 222.632812 C 200.152344 221.585938 202.933594 221.761719 205.40625 222.269531 C 205.921875 222.394531 205.792969 223.144531 205.277344 223.101562 C 203.226562 222.917969 198.585938 222.585938 197.308594 224.390625 C 196.824219 225.144531 196.511719 226.054688 196.289062 226.976562 C 195.863281 228.839844 195.75 230.828125 195.800781 232.765625 C 195.890625 234.601562 196.214844 236.464844 197.058594 238.113281 C 197.21875 238.355469 197.285156 238.617188 197.113281 238.863281 C 196.957031 239.089844 196.792969 239.367188 196.652344 239.628906 C 195.902344 241.046875 195.28125 243.125 197.101562 243.960938 C 198.464844 244.691406 199.992188 245.054688 201.53125 245.398438 C 202.769531 245.65625 204.042969 245.867188 205.292969 246.019531 C 205.292969 246.019531 204.722656 246.355469 204.722656 246.355469 C 204.722656 246.355469 205.882812 243.53125 205.882812 243.53125 C 206 243.25 206.320312 243.117188 206.601562 243.234375 C 206.773438 243.304688 206.894531 243.457031 206.929688 243.625 L 207.582031 246.648438 C 207.582031 246.648438 207.15625 246.226562 207.15625 246.226562 C 208.632812 246.476562 210.167969 246.597656 211.671875 246.703125 C 214.726562 246.902344 217.796875 246.964844 220.863281 246.972656 C 225.40625 246.953125 230.03125 246.730469 234.390625 245.371094 C 235.777344 244.898438 238.117188 244.019531 238.644531 242.609375 C 238.644531 242.609375 238.664062 242.527344 238.664062 242.527344 C 238.664062 242.503906 238.667969 242.480469 238.667969 242.457031 C 238.660156 241.597656 238.445312 240.722656 238.019531 239.976562 C 237.980469 239.90625 237.925781 239.824219 237.898438 239.785156 L 238.085938 238.96875 C 239.300781 237.96875 239.269531 235.765625 238.871094 234.328125 C 238.085938 231.414062 235.652344 229.148438 232.777344 228.320312 C 228.671875 227.121094 222.175781 227.984375 218.976562 230.964844 C 218.59375 231.351562 218.160156 230.945312 217.71875 230.894531 C 217.257812 230.804688 216.769531 230.789062 216.289062 230.8125 C 216.050781 230.824219 215.792969 230.847656 215.570312 230.878906 C 215.570312 230.878906 215 230.078125 215 230.078125 C 215.253906 229.351562 215.316406 228.515625 215.363281 227.726562 C 215.425781 226.980469 215.34375 226.195312 214.898438 225.570312 C 213.996094 224.296875 212.164062 223.875 210.683594 223.578125 C 210.171875 223.511719 210.199219 222.75 210.722656 222.730469 Z M 210.722656 222.726562 " fill-opacity="1" fill-rule="nonzero"/></g><path fill="#000000" d="M 214.675781 242.125 C 203.160156 242.125 196.703125 239.164062 196.433594 239.039062 C 196.160156 238.910156 196.039062 238.582031 196.167969 238.308594 C 196.296875 238.03125 196.625 237.914062 196.902344 238.042969 C 196.964844 238.070312 203.425781 241.023438 214.675781 241.023438 C 234.433594 241.023438 237.910156 239.074219 238.046875 238.992188 C 238.300781 238.824219 238.636719 238.894531 238.804688 239.148438 C 238.972656 239.402344 238.898438 239.746094 238.644531 239.914062 C 238.511719 240.007812 235.078125 242.125 214.675781 242.125 Z M 214.675781 242.125 " fill-opacity="1" fill-rule="nonzero"/><path fill="#000000" d="M 218.9375 231 C 218.042969 231.921875 217.347656 233.058594 216.945312 234.28125 C 216.792969 234.699219 216.707031 235.140625 216.613281 235.578125 C 216.5625 235.816406 216.332031 235.964844 216.097656 235.917969 C 215.882812 235.871094 215.738281 235.675781 215.75 235.464844 C 215.773438 234.96875 215.835938 234.476562 215.960938 233.996094 C 216.257812 232.792969 216.855469 231.667969 217.664062 230.726562 C 217.84375 230.527344 217.996094 230.359375 218.210938 230.171875 C 218.765625 229.710938 219.464844 230.503906 218.9375 231 Z M 218.9375 231 " fill-opacity="1" fill-rule="nonzero"/><path fill="#000000" d="M 215.75 230.855469 C 214.585938 231.089844 213.597656 231.890625 212.882812 232.824219 C 212.410156 233.429688 212.054688 234.117188 211.714844 234.808594 C 211.625 235.011719 211.382812 235.105469 211.183594 235 C 211.019531 234.914062 210.945312 234.722656 210.996094 234.550781 C 211.074219 234.285156 211.164062 234.015625 211.253906 233.746094 C 211.519531 233.082031 211.847656 232.4375 212.277344 231.863281 C 212.90625 231.039062 213.746094 230.332031 214.730469 229.96875 C 215.039062 229.859375 215.347656 229.777344 215.679688 229.757812 C 216.40625 229.746094 216.460938 230.765625 215.75 230.855469 Z M 215.75 230.855469 " fill-opacity="1" fill-rule="nonzero"/><path fill="#000000" d="M 197.78125 245.441406 C 197.542969 245.441406 197.324219 245.285156 197.253906 245.046875 C 196.617188 242.875 198.101562 239.238281 198.164062 239.085938 C 198.28125 238.804688 198.605469 238.671875 198.882812 238.785156 C 199.164062 238.902344 199.300781 239.222656 199.183594 239.503906 C 198.792969 240.453125 197.871094 243.242188 198.3125 244.734375 C 198.398438 245.027344 198.230469 245.332031 197.9375 245.417969 C 197.886719 245.433594 197.832031 245.441406 197.78125 245.441406 Z M 197.78125 245.441406 " fill-opacity="1" fill-rule="nonzero"/><path fill="#000000" d="M 201.699219 246.546875 C 201.414062 246.546875 201.171875 246.324219 201.152344 246.035156 C 200.953125 243.394531 202.230469 240.308594 202.285156 240.179688 C 202.402344 239.898438 202.722656 239.765625 203.003906 239.882812 C 203.285156 240 203.417969 240.324219 203.300781 240.601562 C 203.289062 240.632812 202.070312 243.578125 202.25 245.953125 C 202.273438 246.257812 202.046875 246.519531 201.742188 246.542969 C 201.726562 246.542969 201.714844 246.546875 201.699219 246.546875 Z M 201.699219 246.546875 " fill-opacity="1" fill-rule="nonzero"/><path fill="#000000" d="M 203.574219 246.691406 C 203.289062 246.691406 203.046875 246.46875 203.023438 246.179688 C 202.828125 243.539062 204.027344 240.644531 204.078125 240.523438 C 204.195312 240.246094 204.519531 240.113281 204.796875 240.230469 C 205.078125 240.347656 205.210938 240.671875 205.09375 240.949219 C 205.082031 240.976562 203.945312 243.722656 204.125 246.097656 C 204.144531 246.402344 203.917969 246.664062 203.617188 246.6875 C 203.601562 246.6875 203.585938 246.691406 203.574219 246.691406 Z M 203.574219 246.691406 " fill-opacity="1" fill-rule="nonzero"/><path fill="#000000" d="M 214.292969 247.945312 C 214.25 247.945312 214.207031 247.941406 214.164062 247.929688 C 213.867188 247.859375 213.6875 247.558594 213.757812 247.265625 C 214.28125 245.113281 214.011719 241.652344 214.007812 241.621094 C 213.984375 241.316406 214.210938 241.050781 214.511719 241.027344 C 214.820312 241.003906 215.082031 241.226562 215.105469 241.53125 C 215.117188 241.679688 215.390625 245.203125 214.828125 247.523438 C 214.765625 247.777344 214.542969 247.945312 214.292969 247.945312 Z M 214.292969 247.945312 " fill-opacity="1" fill-rule="nonzero"/><path fill="#000000" d="M 224.804688 247.945312 C 224.785156 247.945312 224.761719 247.945312 224.742188 247.941406 C 224.4375 247.90625 224.222656 247.632812 224.257812 247.332031 C 224.578125 244.539062 224.03125 241.710938 224.023438 241.683594 C 223.964844 241.382812 224.160156 241.09375 224.457031 241.035156 C 224.757812 240.976562 225.046875 241.171875 225.105469 241.46875 C 225.128906 241.589844 225.691406 244.496094 225.351562 247.457031 C 225.320312 247.738281 225.082031 247.945312 224.804688 247.945312 Z M 224.804688 247.945312 " fill-opacity="1" fill-rule="nonzero"/><path fill="#000000" d="M 231.183594 247.164062 C 231.164062 247.164062 231.140625 247.164062 231.121094 247.160156 C 230.820312 247.128906 230.601562 246.855469 230.636719 246.550781 C 230.949219 243.835938 229.910156 241.425781 229.902344 241.402344 C 229.78125 241.125 229.90625 240.796875 230.183594 240.675781 C 230.460938 240.554688 230.789062 240.679688 230.910156 240.957031 C 230.957031 241.066406 232.078125 243.65625 231.730469 246.679688 C 231.699219 246.957031 231.460938 247.164062 231.183594 247.164062 Z M 231.183594 247.164062 " fill-opacity="1" fill-rule="nonzero"/><path fill="#000000" d="M 235.800781 245.992188 C 235.78125 245.992188 235.757812 245.992188 235.738281 245.988281 C 235.433594 245.953125 235.21875 245.683594 235.253906 245.378906 C 235.558594 242.703125 234.40625 240.703125 234.394531 240.683594 C 234.242188 240.421875 234.328125 240.082031 234.589844 239.929688 C 234.851562 239.773438 235.1875 239.859375 235.34375 240.121094 C 235.398438 240.214844 236.699219 242.445312 236.347656 245.503906 C 236.3125 245.785156 236.078125 245.992188 235.800781 245.992188 Z M 235.800781 245.992188 " fill-opacity="1" fill-rule="nonzero"/><path fill="#000000" d="M 237.871094 244.882812 C 237.855469 244.882812 237.839844 244.882812 237.824219 244.882812 C 237.523438 244.855469 237.296875 244.589844 237.324219 244.289062 C 237.480469 242.410156 236.667969 240.101562 236.65625 240.078125 C 236.554688 239.792969 236.703125 239.476562 236.992188 239.375 C 237.277344 239.273438 237.59375 239.421875 237.695312 239.707031 C 237.730469 239.808594 238.597656 242.261719 238.421875 244.378906 C 238.394531 244.667969 238.15625 244.882812 237.871094 244.882812 Z M 237.871094 244.882812 " fill-opacity="1" fill-rule="nonzero"/><path fill="#9b78df" d="M 193.160156 184.742188 C 189.195312 180.238281 194.546875 174.636719 198.773438 177.484375 C 200.003906 178.4375 210.371094 187.324219 209.964844 215.898438 C 208.832031 215.714844 207.507812 215.613281 205.949219 215.613281 C 203.832031 215.613281 202.136719 215.804688 200.78125 216.128906 C 200.992188 203.894531 199.027344 196.125 197.265625 191.671875 C 195.253906 186.582031 193.09375 184.691406 193.070312 184.671875 C 193.128906 184.722656 193.160156 184.742188 193.160156 184.742188 Z M 193.160156 184.742188 " fill-opacity="1" fill-rule="nonzero"/><path fill="#000000" d="M 200.785156 216.679688 C 200.660156 216.679688 200.539062 216.636719 200.4375 216.558594 C 200.304688 216.449219 200.230469 216.289062 200.234375 216.117188 C 200.441406 203.871094 198.453125 196.175781 196.753906 191.875 C 194.816406 186.976562 192.730469 185.105469 192.707031 185.085938 C 192.644531 185.03125 192.597656 184.96875 192.566406 184.894531 C 190.523438 182.390625 191.058594 179.617188 192.53125 177.9375 C 193.945312 176.328125 196.601562 175.355469 199.082031 177.027344 C 199.09375 177.035156 199.101562 177.042969 199.113281 177.046875 C 200.320312 177.984375 210.925781 187.03125 210.515625 215.90625 C 210.515625 216.066406 210.441406 216.21875 210.320312 216.320312 C 210.199219 216.421875 210.035156 216.46875 209.878906 216.441406 C 208.730469 216.257812 207.40625 216.164062 205.949219 216.164062 C 203.992188 216.164062 202.296875 216.332031 200.910156 216.664062 C 200.871094 216.671875 200.828125 216.679688 200.785156 216.679688 Z M 193.613281 184.429688 C 194.191406 185.015625 196.054688 187.113281 197.777344 191.46875 C 199.484375 195.78125 201.46875 203.417969 201.34375 215.445312 C 202.671875 215.191406 204.214844 215.0625 205.949219 215.0625 C 207.207031 215.0625 208.371094 215.128906 209.421875 215.265625 C 209.664062 187.527344 199.675781 178.882812 198.453125 177.929688 C 196.527344 176.644531 194.460938 177.410156 193.355469 178.667969 C 192.25 179.929688 191.640625 182.183594 193.574219 184.378906 C 193.585938 184.394531 193.601562 184.414062 193.613281 184.429688 Z M 193.613281 184.429688 " fill-opacity="1" fill-rule="nonzero"/><path fill="#9b78df" d="M 228.191406 145.238281 C 228.191406 126.421875 217.832031 115.359375 206.070312 114.738281 C 194.113281 114.105469 188.027344 122.648438 187.386719 123.605469 C 186.746094 122.648438 180.660156 114.105469 168.703125 114.738281 C 156.941406 115.359375 146.582031 126.421875 146.582031 145.238281 C 146.582031 167.546875 171.496094 186.800781 187.328125 186.890625 L 187.328125 186.894531 C 187.347656 186.894531 187.367188 186.894531 187.386719 186.894531 C 187.40625 186.894531 187.425781 186.894531 187.445312 186.894531 L 187.445312 186.890625 C 203.28125 186.800781 228.191406 167.546875 228.191406 145.238281 Z M 228.191406 145.238281 " fill-opacity="1" fill-rule="nonzero"/><path fill="#000000" d="M 187.445312 187.445312 L 187.328125 187.445312 C 187.3125 187.445312 187.292969 187.445312 187.277344 187.441406 C 179.179688 187.375 168.984375 182.535156 160.644531 174.800781 C 156.316406 170.785156 152.71875 166.152344 150.234375 161.398438 C 147.445312 156.0625 146.03125 150.625 146.03125 145.238281 C 146.03125 136.242188 148.371094 128.492188 152.796875 122.828125 C 156.898438 117.582031 162.535156 114.511719 168.675781 114.1875 C 179.507812 113.613281 185.648438 120.398438 187.386719 122.667969 C 189.125 120.398438 195.265625 113.613281 206.101562 114.1875 C 212.238281 114.511719 217.875 117.582031 221.976562 122.828125 C 226.402344 128.492188 228.742188 136.242188 228.742188 145.238281 C 228.742188 150.625 227.328125 156.0625 224.539062 161.398438 C 222.054688 166.152344 218.457031 170.785156 214.128906 174.800781 C 205.792969 182.535156 195.59375 187.375 187.496094 187.441406 C 187.480469 187.445312 187.464844 187.445312 187.445312 187.445312 Z M 187.445312 186.894531 Z M 187.382812 186.34375 L 187.40625 186.34375 C 187.417969 186.34375 187.429688 186.339844 187.441406 186.339844 C 195.160156 186.296875 205.34375 181.449219 213.382812 173.992188 C 222.445312 165.585938 227.640625 155.105469 227.640625 145.238281 C 227.640625 125.445312 216.445312 115.839844 206.042969 115.285156 C 194.390625 114.671875 188.480469 122.964844 187.84375 123.914062 C 187.742188 124.066406 187.570312 124.15625 187.386719 124.15625 C 187.203125 124.15625 187.03125 124.066406 186.929688 123.914062 C 186.292969 122.964844 180.382812 114.667969 168.730469 115.285156 C 158.328125 115.835938 147.132812 125.445312 147.132812 145.238281 C 147.132812 155.105469 152.328125 165.585938 161.390625 173.992188 C 169.429688 181.449219 179.613281 186.296875 187.332031 186.339844 C 187.34375 186.339844 187.355469 186.34375 187.367188 186.34375 Z M 187.382812 186.34375 " fill-opacity="1" fill-rule="nonzero"/><path fill="#ffffff" d="M 183.578125 135.4375 C 183.578125 136.789062 183.488281 138.097656 183.328125 139.34375 C 182.53125 145.363281 179.945312 149.777344 176.878906 149.777344 C 173.8125 149.777344 171.226562 145.363281 170.429688 139.339844 C 170.265625 138.097656 170.179688 136.789062 170.179688 135.4375 C 170.179688 127.515625 173.179688 121.09375 176.878906 121.09375 C 180.578125 121.09375 183.578125 127.515625 183.578125 135.4375 Z M 183.578125 135.4375 " fill-opacity="1" fill-rule="nonzero"/><path fill="#000000" d="M 176.878906 150.328125 C 173.558594 150.328125 170.746094 145.941406 169.882812 139.410156 C 169.714844 138.121094 169.628906 136.785156 169.628906 135.4375 C 169.628906 127.085938 172.8125 120.542969 176.878906 120.542969 C 180.945312 120.542969 184.128906 127.085938 184.128906 135.4375 C 184.128906 136.78125 184.042969 138.121094 183.871094 139.414062 C 183.011719 145.941406 180.199219 150.328125 176.878906 150.328125 Z M 176.878906 121.644531 C 173.546875 121.644531 170.730469 127.960938 170.730469 135.4375 C 170.730469 136.734375 170.8125 138.023438 170.976562 139.269531 C 171.738281 145.039062 174.21875 149.226562 176.878906 149.226562 C 179.535156 149.226562 182.019531 145.039062 182.78125 139.269531 C 182.945312 138.023438 183.027344 136.734375 183.027344 135.4375 C 183.027344 127.960938 180.210938 121.644531 176.878906 121.644531 Z M 176.878906 121.644531 " fill-opacity="1" fill-rule="nonzero"/><path fill="#000000" d="M 183.328125 139.339844 C 182.53125 145.363281 179.945312 149.777344 176.878906 149.777344 C 173.8125 149.777344 171.226562 145.363281 170.429688 139.339844 C 170.664062 131.257812 174.328125 126.148438 176.878906 126.148438 C 178.765625 126.148438 181.261719 128.945312 182.527344 133.675781 C 182.453125 133.648438 179.550781 134.671875 177.9375 135.246094 C 177.636719 135.351562 177.691406 135.722656 178.015625 135.765625 L 183.078125 136.390625 C 183.210938 137.324219 183.296875 138.304688 183.328125 139.339844 Z M 183.328125 139.339844 " fill-opacity="1" fill-rule="nonzero"/><path fill="#ffffff" d="M 204.59375 135.4375 C 204.59375 136.789062 204.507812 138.097656 204.34375 139.34375 C 203.550781 145.363281 200.964844 149.777344 197.894531 149.777344 C 194.828125 149.777344 192.242188 145.363281 191.449219 139.339844 C 191.285156 138.097656 191.195312 136.789062 191.195312 135.4375 C 191.195312 127.515625 194.195312 121.09375 197.894531 121.09375 C 201.597656 121.09375 204.59375 127.515625 204.59375 135.4375 Z M 204.59375 135.4375 " fill-opacity="1" fill-rule="nonzero"/><path fill="#000000" d="M 197.894531 150.328125 C 194.574219 150.328125 191.765625 145.941406 190.902344 139.410156 C 190.730469 138.121094 190.644531 136.78125 190.644531 135.4375 C 190.644531 127.085938 193.832031 120.542969 197.894531 120.542969 C 201.960938 120.542969 205.144531 127.085938 205.144531 135.4375 C 205.144531 136.78125 205.058594 138.121094 204.890625 139.414062 C 204.027344 145.941406 201.21875 150.328125 197.894531 150.328125 Z M 197.894531 121.644531 C 194.5625 121.644531 191.746094 127.960938 191.746094 135.4375 C 191.746094 136.734375 191.832031 138.023438 191.992188 139.269531 C 192.753906 145.039062 195.238281 149.226562 197.894531 149.226562 C 200.554688 149.226562 203.035156 145.039062 203.796875 139.269531 C 203.960938 138.023438 204.042969 136.734375 204.042969 135.4375 C 204.042969 127.960938 201.230469 121.644531 197.894531 121.644531 Z M 197.894531 121.644531 " fill-opacity="1" fill-rule="nonzero"/><path fill="#000000" d="M 204.34375 139.339844 C 203.550781 145.363281 200.964844 149.777344 197.894531 149.777344 C 194.828125 149.777344 192.242188 145.363281 191.449219 139.339844 C 191.679688 131.257812 195.34375 126.148438 197.894531 126.148438 C 199.78125 126.148438 202.277344 128.945312 203.546875 133.675781 C 203.472656 133.648438 200.570312 134.671875 198.953125 135.246094 C 198.652344 135.351562 198.710938 135.722656 199.03125 135.765625 L 204.097656 136.390625 C 204.226562 137.324219 204.316406 138.304688 204.34375 139.339844 Z M 204.34375 139.339844 " fill-opacity="1" fill-rule="nonzero"/><path fill="#000000" d="M 179.855469 153.355469 C 181.511719 155.429688 183.554688 157.515625 186.265625 158.019531 C 186.636719 158.097656 187.011719 158.121094 187.386719 158.144531 C 187.699219 158.148438 187.949219 158.414062 187.929688 158.726562 C 187.910156 159.015625 187.671875 159.238281 187.386719 159.246094 C 184.734375 159.316406 182.285156 157.808594 180.605469 155.855469 C 180.050781 155.203125 179.570312 154.515625 179.214844 153.714844 C 179.132812 153.527344 179.214844 153.3125 179.402344 153.230469 C 179.566406 153.15625 179.753906 153.214844 179.855469 153.351562 Z M 179.855469 153.355469 " fill-opacity="1" fill-rule="nonzero"/><path fill="#000000" d="M 177.1875 153.394531 C 178.242188 153.453125 179.296875 153.105469 180.042969 152.339844 C 180.320312 152.085938 180.539062 151.777344 180.78125 151.480469 C 180.910156 151.296875 181.175781 151.25 181.347656 151.402344 C 181.664062 151.695312 181.296875 152.128906 181.175781 152.441406 C 180.835938 153.050781 180.355469 153.574219 179.734375 153.929688 C 179.320312 154.167969 178.855469 154.324219 178.382812 154.375 C 177.917969 154.414062 176.476562 154.445312 176.707031 153.675781 C 176.78125 153.46875 176.988281 153.371094 177.1875 153.394531 Z M 177.1875 153.394531 " fill-opacity="1" fill-rule="nonzero"/><path fill="#000000" d="M 195.558594 153.714844 C 194.476562 156.011719 192.378906 157.953125 189.984375 158.820312 C 189.160156 159.121094 188.265625 159.257812 187.386719 159.246094 C 187.082031 159.238281 186.839844 158.988281 186.84375 158.6875 C 186.847656 158.386719 187.09375 158.148438 187.386719 158.144531 C 190.578125 158.082031 193.058594 155.722656 194.921875 153.355469 C 195.175781 152.996094 195.734375 153.3125 195.558594 153.714844 Z M 195.558594 153.714844 " fill-opacity="1" fill-rule="nonzero"/><path fill="#000000" d="M 197.8125 154.222656 C 196.199219 154.796875 194.363281 153.910156 193.597656 152.441406 C 193.453125 152.105469 193.050781 151.5625 193.53125 151.335938 C 193.941406 151.1875 194.125 151.703125 194.351562 151.933594 C 194.699219 152.34375 195.109375 152.722656 195.574219 152.96875 C 196.203125 153.324219 196.945312 153.425781 197.65625 153.394531 C 198.136719 153.386719 198.257812 154.0625 197.8125 154.222656 Z M 197.8125 154.222656 " fill-opacity="1" fill-rule="nonzero"/><path fill="#9b78df" d="M 159.222656 117.738281 C 160.449219 118.605469 162.796875 118.84375 158.507812 122.6875 C 158.410156 122.773438 146.582031 132.753906 146.582031 145.238281 C 146.582031 151.628906 148.628906 157.769531 151.917969 163.28125 C 151.140625 163.109375 150.464844 162.683594 149.777344 162.152344 C 144.550781 158.113281 142.078125 152.320312 141.230469 146.339844 C 140.566406 141.664062 141.171875 136.660156 143.019531 131.476562 C 146.03125 123.03125 151.386719 116.890625 151.617188 116.628906 C 153.289062 114.730469 156.1875 114.542969 158.089844 116.21875 C 158.585938 116.652344 158.964844 117.171875 159.222656 117.738281 " fill-opacity="1" fill-rule="nonzero"/><path fill="#000000" d="M 151.917969 163.832031 C 151.878906 163.832031 151.839844 163.828125 151.800781 163.816406 C 150.859375 163.613281 150.078125 163.082031 149.441406 162.589844 C 144.621094 158.863281 141.675781 153.421875 140.683594 146.417969 C 140.011719 141.65625 140.621094 136.566406 142.5 131.292969 C 145.546875 122.753906 150.972656 116.527344 151.203125 116.265625 C 153.074219 114.140625 156.328125 113.933594 158.453125 115.804688 C 158.957031 116.246094 159.359375 116.769531 159.65625 117.363281 C 159.785156 117.445312 159.929688 117.527344 160.078125 117.609375 C 160.675781 117.945312 161.421875 118.363281 161.515625 119.210938 C 161.625 120.179688 160.835938 121.339844 158.878906 123.097656 L 158.855469 123.117188 C 157.65625 124.148438 147.132812 133.546875 147.132812 145.238281 C 147.132812 151.179688 148.902344 157.15625 152.390625 162.996094 C 152.503906 163.1875 152.492188 163.421875 152.367188 163.601562 C 152.261719 163.746094 152.09375 163.832031 151.917969 163.832031 Z M 155.0625 115.625 C 153.941406 115.625 152.824219 116.089844 152.027344 116.996094 C 151.804688 117.25 146.511719 123.324219 143.539062 131.664062 C 141.71875 136.765625 141.125 141.679688 141.777344 146.261719 C 142.726562 152.972656 145.53125 158.175781 150.117188 161.71875 C 150.265625 161.832031 150.425781 161.953125 150.589844 162.066406 C 147.566406 156.527344 146.03125 150.871094 146.03125 145.238281 C 146.03125 133.058594 156.898438 123.347656 158.136719 122.28125 C 160.207031 120.425781 160.457031 119.636719 160.421875 119.332031 C 160.394531 119.066406 160.054688 118.859375 159.542969 118.574219 C 159.328125 118.453125 159.109375 118.332031 158.90625 118.1875 C 158.828125 118.128906 158.765625 118.054688 158.722656 117.96875 C 158.488281 117.457031 158.152344 117.007812 157.726562 116.628906 C 156.960938 115.957031 156.011719 115.625 155.0625 115.625 Z M 155.0625 115.625 " fill-opacity="1" fill-rule="nonzero"/><path fill="#ffffff" d="M 150.230469 107.734375 C 145.59375 110.746094 150.519531 117.480469 155.460938 119.867188 C 159.945312 122.03125 166.222656 123.011719 168.414062 119.199219 C 171.09375 113.300781 155.074219 104.589844 150.230469 107.734375 Z M 150.230469 107.734375 " fill-opacity="1" fill-rule="nonzero"/><path fill="#000000" d="M 162.960938 122.328125 C 160.476562 122.328125 157.675781 121.546875 155.222656 120.363281 C 151.765625 118.695312 148.058594 114.851562 147.835938 111.3125 C 147.730469 109.628906 148.453125 108.234375 149.929688 107.273438 C 153.261719 105.113281 161.148438 108.003906 165.714844 111.933594 C 168.773438 114.574219 169.910156 117.234375 168.914062 119.425781 C 168.90625 119.441406 168.898438 119.457031 168.890625 119.472656 C 167.71875 121.507812 165.507812 122.324219 162.960938 122.324219 Z M 150.53125 108.199219 C 149.390625 108.9375 148.855469 109.964844 148.933594 111.242188 C 149.109375 114.007812 152.144531 117.652344 155.699219 119.371094 C 160.351562 121.613281 166.035156 122.1875 167.921875 118.945312 C 168.667969 117.265625 167.601562 115.015625 164.996094 112.769531 C 162.871094 110.941406 159.925781 109.300781 157.113281 108.386719 C 154.207031 107.4375 151.808594 107.367188 150.53125 108.199219 Z M 150.53125 108.199219 " fill-opacity="1" fill-rule="nonzero"/><path fill="#ffffff" d="M 161.792969 114.679688 C 155.832031 114.679688 151.019531 109.769531 151.667969 103.785156 C 152.273438 98.195312 152.832031 96.417969 151.019531 90.164062 C 149.441406 84.707031 151.625 84.007812 152.019531 83.890625 C 152.808594 83.65625 154.59375 84.070312 155.527344 85.542969 C 155.527344 85.542969 153.105469 77.480469 156.550781 76.3125 C 159.609375 75.28125 161.792969 80.5625 161.792969 80.5625 C 161.792969 80.5625 159.765625 72.921875 163.679688 71.914062 C 168.019531 70.800781 169.886719 81.113281 169.886719 81.113281 C 169.886719 81.113281 171.40625 77.03125 176.898438 77.03125 C 182.695312 77.03125 187.386719 85.078125 187.386719 88.632812 C 187.386719 88.632812 187.496094 91.578125 184.871094 91.578125 C 181.175781 91.578125 180.863281 86.765625 177.019531 86.117188 C 173.121094 85.460938 171.222656 89.941406 170.449219 94.878906 C 170.964844 96.9375 172.519531 99.070312 174.84375 100.316406 L 173.933594 109.316406 C 172.378906 112.5 170.269531 115.730469 165.769531 115.324219 " fill-opacity="1" fill-rule="nonzero"/><path fill="#000000" d="M 161.792969 115.050781 C 156.167969 115.539062 151.007812 110.570312 151.027344 104.964844 C 151.011719 104.195312 151.15625 103.074219 151.242188 102.300781 C 151.339844 101.4375 151.441406 100.574219 151.523438 99.722656 C 151.820312 97.183594 151.59375 94.644531 150.949219 92.179688 C 150.53125 90.441406 149.898438 88.789062 149.875 86.964844 C 149.777344 84.632812 151.105469 82.605469 153.667969 83.464844 C 154.609375 83.769531 155.457031 84.394531 155.992188 85.25 L 155 85.703125 C 154.59375 84.25 154.3125 82.816406 154.191406 81.316406 C 154.097656 79.78125 154.097656 78.0625 155.054688 76.746094 C 155.851562 75.652344 157.46875 75.335938 158.660156 75.925781 C 159.757812 76.433594 160.570312 77.398438 161.214844 78.351562 C 161.640625 78.996094 161.992188 79.636719 162.304688 80.351562 C 162.304688 80.351562 161.261719 80.703125 161.261719 80.703125 C 160.824219 78.84375 160.574219 76.992188 160.808594 75.074219 C 160.953125 74.078125 161.257812 73.058594 161.984375 72.289062 C 163.15625 71.035156 165.148438 70.957031 166.425781 72.085938 C 168.714844 74.035156 169.824219 78.148438 170.429688 81.015625 C 170.429688 81.015625 169.371094 80.921875 169.371094 80.921875 C 170.296875 78.75 172.414062 77.199219 174.6875 76.71875 C 177.027344 76.175781 179.320312 76.5625 181.308594 77.898438 C 183.199219 79.144531 184.6875 80.875 185.867188 82.78125 C 187.179688 85.011719 188.90625 88.535156 187.257812 90.980469 C 186.074219 92.652344 183.484375 92.328125 182.105469 91.101562 C 180.140625 89.414062 179.167969 86.539062 176.1875 86.605469 C 173.542969 86.714844 172.34375 89.640625 171.667969 91.867188 C 171.375 92.875 171.15625 93.914062 170.992188 94.964844 L 170.984375 94.746094 C 171.539062 96.90625 173.140625 98.773438 175.101562 99.828125 C 175.304688 99.9375 175.410156 100.15625 175.390625 100.371094 C 175.390625 100.371094 174.480469 109.371094 174.480469 109.371094 C 174.472656 109.4375 174.457031 109.5 174.425781 109.558594 C 174.035156 110.394531 173.601562 111.222656 173.082031 112.011719 C 172.046875 113.617188 170.523438 115.078125 168.621094 115.582031 C 167.664062 115.84375 166.671875 115.875 165.730469 115.742188 C 165.5 115.710938 165.339844 115.5 165.371094 115.269531 C 165.402344 115.050781 165.59375 114.898438 165.804688 114.90625 C 166.671875 114.933594 167.53125 114.851562 168.324219 114.585938 C 170.859375 113.777344 172.289062 111.335938 173.4375 109.074219 C 173.4375 109.074219 173.382812 109.261719 173.382812 109.261719 C 173.382812 109.261719 174.292969 100.257812 174.292969 100.257812 C 174.292969 100.257812 174.582031 100.800781 174.582031 100.800781 C 172.398438 99.628906 170.316406 97.296875 169.90625 94.792969 C 170.375 92.066406 171.019531 89.171875 172.921875 87.035156 C 174.652344 85.082031 177.550781 85.050781 179.519531 86.667969 C 180.796875 87.667969 181.65625 89.285156 182.808594 90.253906 C 183.511719 90.867188 184.472656 91.148438 185.363281 90.976562 C 186.8125 90.667969 187 88.886719 186.726562 87.640625 C 185.972656 84.289062 183.570312 80.726562 180.707031 78.824219 C 179.636719 78.128906 178.453125 77.65625 177.195312 77.589844 C 175.449219 77.527344 173.605469 77.949219 172.21875 79.035156 C 171.628906 79.492188 171.121094 80.050781 170.726562 80.683594 C 170.609375 80.875 170.484375 81.101562 170.402344 81.304688 C 170.292969 81.589844 169.976562 81.734375 169.691406 81.625 C 169.503906 81.554688 169.378906 81.394531 169.34375 81.210938 C 169.179688 80.351562 168.957031 79.472656 168.707031 78.621094 C 168.046875 76.304688 165.882812 70.386719 162.78125 73.046875 C 161.285156 74.746094 161.84375 78.339844 162.328125 80.421875 C 162.480469 81.085938 161.554688 81.382812 161.285156 80.773438 C 160.582031 79.242188 159.210938 76.828125 157.375 76.730469 C 156.816406 76.726562 156.265625 76.957031 155.929688 77.414062 C 154.621094 79.296875 155.484375 83.265625 156.054688 85.382812 C 156.234375 86 155.402344 86.367188 155.0625 85.839844 C 154.671875 85.222656 154.035156 84.757812 153.324219 84.535156 C 151.539062 83.917969 150.984375 85.425781 151.039062 86.941406 C 151.066406 88.15625 151.425781 89.433594 151.761719 90.621094 C 152.117188 91.894531 152.429688 93.1875 152.625 94.5 C 152.90625 96.253906 152.886719 98.078125 152.707031 99.835938 C 152.566406 101.316406 152.335938 102.867188 152.207031 104.34375 C 151.925781 109.996094 156.375 113.882812 161.792969 114.308594 C 162.238281 114.351562 162.238281 115.003906 161.792969 115.050781 Z M 161.792969 115.050781 " fill-opacity="1" fill-rule="nonzero"/><path fill="#ffffff" d="M 171.957031 101.058594 C 171.957031 101.058594 174.542969 99.585938 178.960938 101.058594 C 183.375 102.527344 186.246094 106.65625 185.207031 109.855469 C 184.328125 112.566406 181.667969 111.84375 180.167969 110.980469 C 178.027344 109.746094 175.691406 108.3125 172.207031 109.855469 " fill-opacity="1" fill-rule="nonzero"/><path fill="#000000" d="M 171.773438 100.734375 C 174.328125 99.269531 177.75 99.859375 180.328125 100.988281 C 183.601562 102.476562 186.839844 106.039062 185.835938 109.882812 C 185.007812 112.871094 182.09375 112.839844 179.824219 111.46875 C 178.058594 110.398438 176.324219 109.53125 174.289062 109.78125 C 173.644531 109.835938 172.996094 109.992188 172.328125 110.15625 C 172.152344 110.203125 171.972656 110.09375 171.929688 109.917969 C 171.894531 109.773438 171.957031 109.628906 172.074219 109.554688 C 172.695312 109.171875 173.394531 108.890625 174.132812 108.738281 C 175.609375 108.425781 177.195312 108.796875 178.527344 109.429688 C 179.191406 109.734375 179.8125 110.09375 180.417969 110.4375 C 181.972656 111.324219 184.105469 111.730469 184.660156 109.542969 C 185.167969 107.6875 184.269531 105.777344 183.011719 104.359375 C 181.25 102.367188 178.632812 101.246094 176.007812 100.988281 C 174.78125 100.882812 173.527344 100.933594 172.351562 101.304688 C 172.257812 101.335938 172.175781 101.363281 172.097656 101.394531 C 171.6875 101.542969 171.40625 100.972656 171.773438 100.734375 Z M 171.773438 100.734375 " fill-opacity="1" fill-rule="nonzero"/><path fill="#000000" d="M 157.523438 99.222656 C 157.695312 96.949219 157.617188 94.566406 157.238281 92.3125 C 157.050781 91.199219 156.765625 90.039062 156.402344 88.972656 C 156.054688 87.875 155.558594 86.839844 155.046875 85.8125 C 154.890625 85.539062 154.992188 85.183594 155.277344 85.042969 C 155.542969 84.910156 155.867188 85.011719 156.007812 85.273438 C 156.160156 85.550781 156.515625 86.214844 156.65625 86.480469 C 157.777344 88.808594 158.382812 91.363281 158.566406 93.9375 C 158.671875 95.75 158.59375 97.570312 158.164062 99.347656 C 158.0625 99.742188 157.472656 99.632812 157.523438 99.222656 Z M 157.523438 99.222656 " fill-opacity="1" fill-rule="nonzero"/><path fill="#000000" d="M 162.265625 95.308594 C 162.574219 92.835938 162.703125 90.28125 162.574219 87.789062 C 162.472656 85.773438 162.136719 83.742188 161.605469 81.796875 C 161.5 81.480469 161.265625 80.753906 161.164062 80.429688 C 160.960938 79.75 161.945312 79.410156 162.203125 80.078125 C 162.320312 80.398438 162.59375 81.160156 162.703125 81.46875 C 162.828125 81.929688 162.976562 82.425781 163.089844 82.890625 C 163.089844 82.890625 163.285156 83.851562 163.285156 83.851562 C 163.574219 85.273438 163.691406 86.777344 163.730469 88.222656 C 163.75 89.355469 163.714844 90.5 163.601562 91.625 C 163.46875 92.917969 163.257812 94.191406 162.902344 95.457031 C 162.855469 95.628906 162.675781 95.730469 162.5 95.683594 C 162.335938 95.636719 162.238281 95.472656 162.265625 95.308594 Z M 162.265625 95.308594 " fill-opacity="1" fill-rule="nonzero"/><path fill="#000000" d="M 167.042969 93.757812 C 167.960938 91.707031 168.691406 89.480469 169.101562 87.269531 C 169.289062 86.324219 169.375 85.289062 169.445312 84.328125 C 169.445312 84.328125 169.449219 83.90625 169.449219 83.90625 C 169.484375 82.769531 169.390625 81.664062 169.242188 80.539062 C 169.128906 79.808594 170.183594 79.617188 170.328125 80.347656 C 170.328125 80.347656 170.464844 81.238281 170.464844 81.238281 C 170.894531 84.199219 170.460938 87.246094 169.527344 90.074219 C 169.042969 91.476562 168.433594 92.839844 167.605469 94.089844 C 167.378906 94.425781 166.855469 94.121094 167.042969 93.757812 Z M 167.042969 93.757812 " fill-opacity="1" fill-rule="nonzero"/><path fill="#000000" d="M 165.234375 113.859375 C 165.160156 113.816406 165.039062 113.820312 164.964844 113.859375 C 164.949219 113.867188 164.960938 113.859375 164.96875 113.847656 C 164.96875 113.847656 165.011719 113.796875 165.011719 113.796875 C 166.496094 111.867188 167.578125 109.597656 168.027344 107.199219 C 168.179688 106.382812 168.25 105.550781 168.265625 104.703125 C 168.269531 104.53125 168.410156 104.394531 168.578125 104.398438 C 168.726562 104.402344 168.84375 104.503906 168.875 104.640625 C 169.058594 105.519531 169.097656 106.433594 169.007812 107.335938 C 168.78125 109.585938 167.808594 111.746094 166.316406 113.441406 C 166 113.78125 165.667969 114.132812 165.269531 114.382812 C 165.011719 114.539062 164.691406 114.273438 164.832031 113.992188 C 164.90625 113.847656 165.085938 113.785156 165.234375 113.859375 Z M 165.234375 113.859375 " fill-opacity="1" fill-rule="nonzero"/><path fill="#9b78df" d="M 215.550781 117.738281 C 214.324219 118.605469 211.980469 118.84375 216.265625 122.6875 C 216.363281 122.773438 228.191406 132.753906 228.191406 145.238281 C 228.191406 151.628906 226.148438 157.769531 222.855469 163.28125 C 223.632812 163.109375 224.308594 162.683594 224.996094 162.152344 C 230.222656 158.113281 232.699219 152.320312 233.542969 146.339844 C 234.207031 141.664062 233.601562 136.660156 231.753906 131.476562 C 228.742188 123.03125 223.386719 116.890625 223.160156 116.628906 C 221.484375 114.730469 218.585938 114.542969 216.683594 116.21875 C 216.1875 116.652344 215.808594 117.171875 215.550781 117.738281 " fill-opacity="1" fill-rule="nonzero"/><path fill="#000000" d="M 222.855469 163.832031 C 222.679688 163.832031 222.511719 163.746094 222.410156 163.601562 C 222.28125 163.421875 222.269531 163.1875 222.382812 162.996094 C 225.871094 157.152344 227.640625 151.179688 227.640625 145.238281 C 227.640625 133.546875 217.121094 124.148438 215.917969 123.117188 L 215.898438 123.097656 C 213.9375 121.339844 213.148438 120.179688 213.257812 119.210938 C 213.351562 118.359375 214.097656 117.945312 214.695312 117.609375 C 214.847656 117.527344 214.988281 117.445312 215.117188 117.363281 C 215.414062 116.769531 215.816406 116.246094 216.320312 115.804688 C 218.445312 113.933594 221.699219 114.140625 223.570312 116.265625 C 223.800781 116.527344 229.226562 122.753906 232.273438 131.292969 C 234.152344 136.566406 234.761719 141.65625 234.089844 146.417969 C 233.097656 153.421875 230.152344 158.863281 225.332031 162.589844 C 224.695312 163.082031 223.917969 163.613281 222.972656 163.816406 C 222.933594 163.828125 222.894531 163.832031 222.855469 163.832031 Z M 219.710938 115.625 C 218.765625 115.625 217.8125 115.957031 217.046875 116.628906 C 216.621094 117.007812 216.285156 117.457031 216.050781 117.96875 C 216.011719 118.054688 215.949219 118.128906 215.871094 118.1875 C 215.664062 118.332031 215.445312 118.453125 215.234375 118.570312 C 214.71875 118.859375 214.382812 119.066406 214.351562 119.332031 C 214.316406 119.636719 214.570312 120.425781 216.632812 122.277344 C 217.878906 123.347656 228.742188 133.058594 228.742188 145.238281 C 228.742188 150.871094 227.210938 156.527344 224.183594 162.066406 C 224.351562 161.953125 224.507812 161.832031 224.660156 161.71875 C 229.242188 158.171875 232.050781 152.972656 233 146.261719 C 233.648438 141.679688 233.054688 136.765625 231.234375 131.660156 C 228.261719 123.320312 222.96875 117.25 222.746094 116.992188 C 221.949219 116.089844 220.832031 115.625 219.710938 115.625 Z M 215.550781 117.738281 Z M 215.550781 117.738281 " fill-opacity="1" fill-rule="nonzero"/><path fill="#ffffff" d="M 224.542969 107.734375 C 229.179688 110.746094 224.253906 117.480469 219.3125 119.867188 C 214.828125 122.03125 208.554688 123.011719 206.363281 119.199219 C 203.679688 113.300781 219.699219 104.589844 224.542969 107.734375 Z M 224.542969 107.734375 " fill-opacity="1" fill-rule="nonzero"/><path fill="#000000" d="M 211.8125 122.328125 C 209.265625 122.328125 207.054688 121.507812 205.882812 119.472656 C 205.875 119.457031 205.867188 119.441406 205.859375 119.425781 C 204.863281 117.234375 206 114.574219 209.0625 111.9375 C 213.625 108.003906 221.515625 105.113281 224.84375 107.273438 C 226.320312 108.234375 227.046875 109.628906 226.9375 111.3125 C 226.714844 114.851562 223.007812 118.695312 219.550781 120.363281 C 217.101562 121.546875 214.296875 122.328125 211.8125 122.328125 Z M 206.851562 118.945312 C 208.742188 122.1875 214.425781 121.613281 219.074219 119.371094 C 222.628906 117.652344 225.664062 114.007812 225.839844 111.242188 C 225.921875 109.964844 225.382812 108.9375 224.242188 108.199219 C 222.964844 107.367188 220.566406 107.4375 217.660156 108.386719 C 214.847656 109.300781 211.902344 110.941406 209.78125 112.769531 C 207.171875 115.015625 206.105469 117.265625 206.851562 118.945312 Z M 206.851562 118.945312 " fill-opacity="1" fill-rule="nonzero"/><path fill="#ffffff" d="M 212.980469 114.679688 C 218.941406 114.679688 223.753906 109.769531 223.105469 103.785156 C 222.503906 98.195312 221.941406 96.417969 223.753906 90.164062 C 225.332031 84.707031 223.148438 84.007812 222.757812 83.890625 C 221.964844 83.65625 220.179688 84.070312 219.246094 85.542969 C 219.246094 85.542969 221.671875 77.480469 218.222656 76.3125 C 215.167969 75.28125 212.980469 80.5625 212.980469 80.5625 C 212.980469 80.5625 215.007812 72.921875 211.09375 71.914062 C 206.753906 70.800781 204.886719 81.113281 204.886719 81.113281 C 204.886719 81.113281 203.367188 77.03125 197.875 77.03125 C 192.078125 77.03125 187.386719 85.078125 187.386719 88.632812 C 187.386719 88.632812 187.28125 91.578125 189.902344 91.578125 C 193.601562 91.578125 193.910156 86.765625 197.753906 86.117188 C 201.652344 85.460938 203.554688 89.941406 204.324219 94.878906 C 203.8125 96.9375 202.253906 99.070312 199.933594 100.316406 L 200.84375 109.316406 C 202.394531 112.5 204.503906 115.730469 209.007812 115.324219 " fill-opacity="1" fill-rule="nonzero"/><path fill="#000000" d="M 212.980469 114.308594 C 218.140625 113.898438 222.507812 110.347656 222.582031 104.953125 C 222.542969 103.261719 222.207031 101.527344 222.066406 99.835938 C 221.824219 97.632812 221.914062 95.359375 222.382812 93.1875 C 222.640625 91.90625 223.011719 90.636719 223.355469 89.378906 C 223.703125 88.003906 224.3125 84.855469 222.480469 84.410156 C 221.4375 84.308594 220.265625 84.957031 219.710938 85.839844 C 219.363281 86.378906 218.539062 85.984375 218.71875 85.382812 C 219.292969 83.253906 220.152344 79.304688 218.847656 77.417969 C 218.507812 76.957031 217.957031 76.726562 217.398438 76.730469 C 215.5625 76.828125 214.191406 79.246094 213.488281 80.773438 C 213.207031 81.394531 212.292969 81.070312 212.449219 80.421875 C 212.929688 78.332031 213.492188 74.753906 211.992188 73.046875 C 208.902344 70.378906 206.71875 76.320312 206.066406 78.621094 C 205.816406 79.472656 205.59375 80.351562 205.429688 81.210938 C 205.375 81.511719 205.082031 81.710938 204.78125 81.652344 C 204.441406 81.597656 204.367188 81.265625 204.230469 81.003906 C 203.820312 80.238281 203.238281 79.566406 202.554688 79.035156 C 201.167969 77.949219 199.324219 77.527344 197.578125 77.589844 C 196.320312 77.65625 195.136719 78.128906 194.066406 78.824219 C 191.199219 80.730469 188.800781 84.289062 188.046875 87.644531 C 187.769531 88.886719 187.964844 90.667969 189.410156 90.976562 C 190.304688 91.148438 191.261719 90.867188 191.96875 90.253906 C 193.117188 89.285156 193.976562 87.667969 195.257812 86.667969 C 197.222656 85.054688 200.125 85.082031 201.851562 87.035156 C 203.753906 89.171875 204.398438 92.066406 204.871094 94.792969 C 204.457031 97.296875 202.378906 99.628906 200.191406 100.800781 C 200.191406 100.800781 200.480469 100.257812 200.480469 100.257812 C 200.480469 100.257812 201.390625 109.261719 201.390625 109.261719 C 201.390625 109.261719 201.335938 109.074219 201.335938 109.074219 C 202.128906 110.625 203.003906 112.191406 204.300781 113.34375 C 205.578125 114.5 207.25 114.984375 208.96875 114.90625 C 209.203125 114.898438 209.398438 115.082031 209.40625 115.3125 C 209.410156 115.53125 209.253906 115.714844 209.042969 115.742188 C 208.101562 115.875 207.109375 115.84375 206.15625 115.582031 C 203.277344 114.800781 201.519531 112.101562 200.347656 109.558594 C 200.316406 109.496094 200.300781 109.433594 200.292969 109.371094 C 200.292969 109.371094 199.382812 100.371094 199.382812 100.371094 C 199.359375 100.140625 199.480469 99.929688 199.671875 99.828125 C 200.664062 99.296875 201.550781 98.566406 202.261719 97.695312 C 202.972656 96.828125 203.519531 95.816406 203.792969 94.746094 L 203.78125 94.964844 C 203.308594 92.105469 202.140625 86.75 198.585938 86.605469 C 195.605469 86.539062 194.632812 89.414062 192.671875 91.101562 C 191.503906 92.109375 189.632812 92.523438 188.25 91.679688 C 187.410156 91.15625 186.976562 90.128906 186.871094 89.21875 C 186.730469 88.015625 187.050781 86.886719 187.433594 85.789062 C 188.636719 82.65625 190.65625 79.785156 193.464844 77.898438 C 194.652344 77.125 196.070312 76.5625 197.523438 76.492188 C 200.726562 76.320312 204.09375 77.863281 205.402344 80.921875 C 205.402344 80.921875 204.347656 81.015625 204.347656 81.015625 C 204.929688 78.269531 205.6875 75.511719 207.324219 73.179688 C 208.234375 71.890625 209.773438 70.875 211.410156 71.433594 C 212.996094 71.886719 213.796875 73.5625 213.964844 75.074219 C 214.199219 76.992188 213.949219 78.84375 213.511719 80.703125 C 213.511719 80.703125 212.472656 80.351562 212.472656 80.351562 C 212.628906 79.984375 212.792969 79.660156 212.976562 79.324219 C 213.730469 77.984375 214.664062 76.621094 216.113281 75.925781 C 217.300781 75.335938 218.925781 75.648438 219.71875 76.746094 C 221.339844 78.972656 220.441406 83.210938 219.773438 85.703125 C 219.773438 85.703125 218.78125 85.25 218.78125 85.25 C 219.8125 83.578125 222.621094 82.375 224.101562 84.121094 C 225.554688 86.003906 224.71875 88.878906 224.152344 90.933594 C 222.523438 96.632812 223.199219 98.691406 223.730469 104.277344 C 223.992188 108.210938 221.71875 112.097656 218.242188 113.910156 C 217.433594 114.335938 216.578125 114.683594 215.683594 114.871094 C 214.792969 115.0625 213.878906 115.136719 212.980469 115.050781 C 212.773438 115.03125 212.625 114.847656 212.644531 114.644531 C 212.660156 114.460938 212.804688 114.324219 212.980469 114.308594 Z M 212.980469 114.308594 " fill-opacity="1" fill-rule="nonzero"/><path fill="#ffffff" d="M 202.816406 101.058594 C 202.816406 101.058594 200.230469 99.585938 195.816406 101.058594 C 191.398438 102.527344 188.527344 106.65625 189.566406 109.855469 C 190.445312 112.566406 193.105469 111.84375 194.609375 110.980469 C 196.75 109.746094 199.082031 108.3125 202.566406 109.855469 " fill-opacity="1" fill-rule="nonzero"/><path fill="#000000" d="M 202.632812 101.378906 C 202.035156 101.160156 201.378906 101.039062 200.746094 100.980469 C 197.46875 100.714844 193.972656 101.882812 191.761719 104.359375 C 190.503906 105.777344 189.605469 107.6875 190.117188 109.542969 C 190.671875 111.726562 192.796875 111.324219 194.355469 110.4375 C 194.960938 110.09375 195.582031 109.734375 196.25 109.429688 C 198.324219 108.414062 200.703125 108.289062 202.699219 109.554688 C 203.019531 109.753906 202.796875 110.261719 202.433594 110.15625 C 201.148438 109.820312 199.878906 109.597656 198.582031 109.855469 C 197.324219 110.09375 196.152344 110.761719 194.949219 111.46875 C 194.300781 111.847656 193.589844 112.148438 192.8125 112.296875 C 189.820312 112.894531 188.367188 110.160156 188.820312 107.535156 C 189.726562 103.027344 194.335938 100.234375 198.671875 99.894531 C 200.144531 99.796875 201.710938 99.964844 203 100.734375 C 203.386719 100.996094 203.050781 101.574219 202.632812 101.378906 Z M 202.632812 101.378906 " fill-opacity="1" fill-rule="nonzero"/><path fill="#000000" d="M 216.609375 99.347656 C 216.050781 96.976562 216.050781 94.523438 216.410156 92.132812 C 216.75 89.726562 217.550781 87.378906 218.765625 85.273438 C 218.910156 85.003906 219.246094 84.90625 219.511719 85.050781 C 219.789062 85.199219 219.878906 85.546875 219.726562 85.8125 C 219.214844 86.839844 218.71875 87.875 218.375 88.972656 C 218.199219 89.429688 218.019531 90.148438 217.886719 90.621094 C 217.472656 92.285156 217.253906 94.039062 217.1875 95.757812 C 217.1875 95.757812 217.164062 96.625 217.164062 96.625 C 217.164062 97.460938 217.175781 98.421875 217.253906 99.242188 C 217.28125 99.636719 216.710938 99.738281 216.609375 99.347656 Z M 216.609375 99.347656 " fill-opacity="1" fill-rule="nonzero"/><path fill="#000000" d="M 211.871094 95.457031 C 210.664062 91.015625 210.738281 85.363281 212.234375 81.003906 C 212.234375 81.003906 212.570312 80.078125 212.570312 80.078125 C 212.824219 79.414062 213.8125 79.746094 213.613281 80.429688 C 213.507812 80.757812 213.273438 81.484375 213.171875 81.796875 C 212.554688 84.046875 212.207031 86.394531 212.160156 88.726562 C 212.128906 89.945312 212.167969 91.277344 212.242188 92.496094 C 212.304688 93.4375 212.386719 94.394531 212.511719 95.324219 C 212.558594 95.71875 211.988281 95.84375 211.871094 95.457031 Z M 211.871094 95.457031 " fill-opacity="1" fill-rule="nonzero"/><path fill="#000000" d="M 207.167969 94.089844 C 205.859375 92.089844 205.03125 89.8125 204.554688 87.488281 C 204.1875 85.734375 204.054688 83.917969 204.207031 82.132812 C 204.226562 81.613281 204.375 80.867188 204.449219 80.347656 C 204.574219 79.652344 205.601562 79.785156 205.539062 80.496094 C 205.5 80.804688 205.421875 81.496094 205.382812 81.796875 C 205.324219 82.773438 205.28125 83.769531 205.363281 84.75 C 205.460938 86.433594 205.796875 88.132812 206.261719 89.753906 C 206.378906 90.160156 206.644531 90.980469 206.78125 91.378906 C 207.0625 92.15625 207.394531 93.035156 207.738281 93.773438 C 207.902344 94.132812 207.390625 94.421875 207.167969 94.089844 Z M 207.167969 94.089844 " fill-opacity="1" fill-rule="nonzero"/><path fill="#000000" d="M 209.808594 114.398438 C 209.746094 114.433594 209.621094 114.4375 209.554688 114.40625 C 209.476562 114.378906 209.398438 114.3125 209.332031 114.265625 C 206.660156 112.011719 205.199219 108.082031 205.902344 104.640625 C 205.9375 104.476562 206.097656 104.371094 206.265625 104.40625 C 206.40625 104.4375 206.507812 104.5625 206.507812 104.703125 C 206.523438 108.003906 207.757812 111.203125 209.761719 113.796875 C 209.761719 113.796875 209.804688 113.847656 209.804688 113.847656 C 209.832031 113.878906 209.796875 113.851562 209.777344 113.847656 C 209.714844 113.816406 209.601562 113.824219 209.542969 113.859375 C 209.894531 113.691406 210.160156 114.214844 209.808594 114.398438 Z M 209.808594 114.398438 " fill-opacity="1" fill-rule="nonzero"/><g fill="#000000" fill-opacity="1"><g transform="translate(168.723149, 56.021642)"><g><path d="M 6.0625 -3.40625 C 6.195312 -2.71875 6.046875 -2.128906 5.609375 -1.640625 C 5.171875 -1.160156 4.445312 -0.816406 3.4375 -0.609375 C 2.53125 -0.421875 1.785156 -0.4375 1.203125 -0.65625 C 0.617188 -0.875 0.191406 -1.289062 -0.078125 -1.90625 L 1.296875 -2.453125 C 1.472656 -2.097656 1.71875 -1.863281 2.03125 -1.75 C 2.34375 -1.632812 2.753906 -1.632812 3.265625 -1.75 C 4.296875 -1.957031 4.75 -2.375 4.625 -3 C 4.582031 -3.207031 4.488281 -3.363281 4.34375 -3.46875 C 4.195312 -3.582031 4.003906 -3.660156 3.765625 -3.703125 C 3.523438 -3.742188 3.085938 -3.765625 2.453125 -3.765625 C 1.898438 -3.773438 1.507812 -3.796875 1.28125 -3.828125 C 1.0625 -3.859375 0.851562 -3.90625 0.65625 -3.96875 C 0.46875 -4.039062 0.300781 -4.132812 0.15625 -4.25 C 0.0078125 -4.363281 -0.113281 -4.507812 -0.21875 -4.6875 C -0.332031 -4.863281 -0.414062 -5.085938 -0.46875 -5.359375 C -0.601562 -5.984375 -0.460938 -6.519531 -0.046875 -6.96875 C 0.359375 -7.425781 1.019531 -7.75 1.9375 -7.9375 C 2.8125 -8.125 3.503906 -8.125 4.015625 -7.9375 C 4.523438 -7.75 4.90625 -7.347656 5.15625 -6.734375 L 3.75 -6.25 C 3.613281 -6.539062 3.414062 -6.738281 3.15625 -6.84375 C 2.894531 -6.957031 2.550781 -6.96875 2.125 -6.875 C 1.226562 -6.6875 0.84375 -6.3125 0.96875 -5.75 C 1.007812 -5.5625 1.085938 -5.421875 1.203125 -5.328125 C 1.328125 -5.234375 1.488281 -5.160156 1.6875 -5.109375 C 1.894531 -5.066406 2.300781 -5.039062 2.90625 -5.03125 C 3.613281 -5.03125 4.125 -5 4.4375 -4.9375 C 4.757812 -4.875 5.023438 -4.78125 5.234375 -4.65625 C 5.441406 -4.53125 5.613281 -4.363281 5.75 -4.15625 C 5.894531 -3.957031 6 -3.707031 6.0625 -3.40625 Z M 6.0625 -3.40625 "/></g></g></g><g fill="#000000" fill-opacity="1"><g transform="translate(175.488877, 54.58502)"><g><path d="M 5.796875 -0.640625 L 4.96875 -2.421875 L 2.203125 -2.109375 L 1.765625 -0.203125 L 0.265625 -0.03125 L 2.09375 -7.53125 L 3.875 -7.71875 L 7.296875 -0.8125 Z M 3.078125 -6.53125 L 3.09375 -6.40625 C 3.070312 -6.269531 3.046875 -6.117188 3.015625 -5.953125 C 2.984375 -5.796875 2.785156 -4.910156 2.421875 -3.296875 L 4.5 -3.515625 L 3.53125 -5.5 L 3.234375 -6.1875 Z M 3.078125 -6.53125 "/></g></g></g><g fill="#000000" fill-opacity="1"><g transform="translate(182.943292, 53.76163)"><g><path d="M 4.234375 -3.03125 L 4.28125 -0.0625 L 2.765625 -0.046875 L 2.71875 -3.015625 L 0.0625 -7.25 L 1.65625 -7.28125 L 3.4375 -4.25 L 5.15625 -7.328125 L 6.75 -7.359375 Z M 4.234375 -3.03125 "/></g></g></g><g fill="#000000" fill-opacity="1"><g transform="translate(189.935227, 53.718115)"><g/></g></g><g fill="#000000" fill-opacity="1"><g transform="translate(192.691736, 53.768649)"><g><path d="M 5.359375 0.625 L 5.71875 -2.46875 L 2.5625 -2.828125 L 2.203125 0.265625 L 0.71875 0.078125 L 1.5625 -7.125 L 3.046875 -6.9375 L 2.71875 -4.078125 L 5.875 -3.71875 L 6.203125 -6.578125 L 7.703125 -6.390625 L 6.859375 0.8125 Z M 5.359375 0.625 "/></g></g></g><g fill="#000000" fill-opacity="1"><g transform="translate(200.194727, 54.730124)"><g><path d="M 0.703125 0.140625 L 2.046875 -6.984375 L 3.53125 -6.71875 L 2.1875 0.40625 Z M 0.703125 0.140625 "/></g></g></g><g fill="#000000" fill-opacity="1"><g transform="translate(203.09129, 55.269251)"><g><path d="M 2.78125 -1.609375 L 1.625 -1.875 L 2.59375 -6.84375 L 4.078125 -6.5 Z M 0.953125 0.21875 L 1.265625 -1.140625 L 2.734375 -0.796875 L 2.421875 0.5625 Z M 0.953125 0.21875 "/></g></g></g></svg>