<svg xmlns="http://www.w3.org/2000/svg" xmlns:xlink="http://www.w3.org/1999/xlink" width="500" zoomAndPan="magnify" viewBox="0 0 375 374.999991" height="500" preserveAspectRatio="xMidYMid meet" version="1.0"><defs><g/></defs><g fill="#f8f7f0" fill-opacity="1"><g transform="translate(117.027472, 225.45742)"><g><path d="M 29.703125 1.375 C 58.015625 8.0625 73.6875 -8.0625 73.6875 -25.09375 L 73.6875 -121.34375 L 45.359375 -121.34375 L 45.359375 -15.890625 C 45.359375 -1.15625 29.703125 1.375 29.703125 1.375 Z M 22.328125 -3.921875 C 30.15625 -3.921875 36.375 -10.125 36.375 -17.953125 C 36.375 -25.5625 30.15625 -32 22.328125 -32 C 14.734375 -32 8.515625 -25.5625 8.515625 -17.953125 C 8.515625 -10.125 14.734375 -3.921875 22.328125 -3.921875 Z M 22.328125 -3.921875 "/></g></g></g><g fill="#f8f7f0" fill-opacity="1"><g transform="translate(175.97053, 225.45742)"><g><path d="M 29.703125 1.375 C 58.015625 8.0625 73.6875 -8.0625 73.6875 -25.09375 L 73.6875 -121.34375 L 45.359375 -121.34375 L 45.359375 -15.890625 C 45.359375 -1.15625 29.703125 1.375 29.703125 1.375 Z M 22.328125 -3.921875 C 30.15625 -3.921875 36.375 -10.125 36.375 -17.953125 C 36.375 -25.5625 30.15625 -32 22.328125 -32 C 14.734375 -32 8.515625 -25.5625 8.515625 -17.953125 C 8.515625 -10.125 14.734375 -3.921875 22.328125 -3.921875 Z M 22.328125 -3.921875 "/></g></g></g><g fill="#f8f7f0" fill-opacity="1"><g transform="translate(103.745403, 271.785275)"><g><path d="M 3.296875 -10.5625 L 3.296875 -1.6875 C 3.296875 -0.800781 3.078125 -0.117188 2.640625 0.359375 C 2.210938 0.847656 1.648438 1.09375 0.953125 1.09375 C 0.597656 1.09375 0.265625 1.015625 -0.046875 0.859375 C -0.359375 0.710938 -0.648438 0.53125 -0.921875 0.3125 L -0.265625 -0.609375 C -0.015625 -0.367188 0.195312 -0.207031 0.375 -0.125 C 0.550781 -0.0390625 0.753906 0 0.984375 0 C 1.390625 0 1.679688 -0.164062 1.859375 -0.5 C 2.035156 -0.84375 2.125 -1.359375 2.125 -2.046875 L 2.125 -10.5625 Z M 3.296875 -10.5625 "/></g></g></g><g fill="#f8f7f0" fill-opacity="1"><g transform="translate(111.638937, 271.785275)"><g><path d="M 0.53125 -5.265625 C 0.53125 -6.234375 0.773438 -7.132812 1.265625 -7.96875 C 1.753906 -8.8125 2.421875 -9.484375 3.265625 -9.984375 C 4.117188 -10.484375 5.039062 -10.734375 6.03125 -10.734375 C 7.007812 -10.734375 7.921875 -10.488281 8.765625 -10 C 9.609375 -9.519531 10.28125 -8.851562 10.78125 -8 C 11.28125 -7.15625 11.53125 -6.242188 11.53125 -5.265625 C 11.53125 -4.296875 11.285156 -3.390625 10.796875 -2.546875 C 10.304688 -1.703125 9.640625 -1.035156 8.796875 -0.546875 C 7.953125 -0.0546875 7.03125 0.1875 6.03125 0.1875 C 5.050781 0.1875 4.132812 -0.0546875 3.28125 -0.546875 C 2.4375 -1.035156 1.765625 -1.703125 1.265625 -2.546875 C 0.773438 -3.390625 0.53125 -4.296875 0.53125 -5.265625 Z M 6.015625 -9.640625 C 5.234375 -9.640625 4.507812 -9.4375 3.84375 -9.03125 C 3.1875 -8.632812 2.664062 -8.101562 2.28125 -7.4375 C 1.894531 -6.769531 1.703125 -6.050781 1.703125 -5.28125 C 1.703125 -4.5 1.898438 -3.769531 2.296875 -3.09375 C 2.691406 -2.425781 3.222656 -1.894531 3.890625 -1.5 C 4.554688 -1.101562 5.269531 -0.90625 6.03125 -0.90625 C 6.8125 -0.90625 7.535156 -1.101562 8.203125 -1.5 C 8.878906 -1.90625 9.40625 -2.441406 9.78125 -3.109375 C 10.164062 -3.785156 10.359375 -4.507812 10.359375 -5.28125 C 10.359375 -6.0625 10.164062 -6.789062 9.78125 -7.46875 C 9.394531 -8.144531 8.867188 -8.675781 8.203125 -9.0625 C 7.535156 -9.445312 6.804688 -9.640625 6.015625 -9.640625 Z M 6.015625 -9.640625 "/></g></g></g><g fill="#f8f7f0" fill-opacity="1"><g transform="translate(127.200194, 271.785275)"><g><path d="M 1.359375 -10.5625 L 4.375 -2.5 L 7.375 -10.5625 L 8.65625 -10.5625 L 4.375 0.625 L 0.078125 -10.5625 Z M 1.46875 0 Z M 1.46875 0 "/></g></g></g><g fill="#f8f7f0" fill-opacity="1"><g transform="translate(139.431312, 271.785275)"><g><path d="M 4.953125 -11.0625 L 9.703125 0 L 8.40625 0 L 7.15625 -3 L 2.640625 -3 L 1.375 0 L 0.078125 0 Z M 3.125 -4.09375 L 6.6875 -4.09375 L 4.921875 -8.3125 Z M 1.90625 -10.5625 Z M 1.90625 -10.5625 "/></g></g></g><g fill="#f8f7f0" fill-opacity="1"><g transform="translate(152.711842, 271.785275)"><g><path d="M 1.140625 -11 L 9.359375 -2.375 L 9.359375 -10.5625 L 10.546875 -10.5625 L 10.546875 0.46875 L 2.3125 -8.140625 L 2.3125 0 L 1.140625 0 Z M 1.140625 -11 "/></g></g></g><g fill="#f8f7f0" fill-opacity="1"><g transform="translate(167.881311, 271.785275)"><g><path d="M 1.140625 -11 L 9.359375 -2.375 L 9.359375 -10.5625 L 10.546875 -10.5625 L 10.546875 0.46875 L 2.3125 -8.140625 L 2.3125 0 L 1.140625 0 Z M 1.140625 -11 "/></g></g></g><g fill="#f8f7f0" fill-opacity="1"><g transform="translate(183.05078, 271.785275)"><g><path d="M 4.953125 -11.0625 L 9.703125 0 L 8.40625 0 L 7.15625 -3 L 2.640625 -3 L 1.375 0 L 0.078125 0 Z M 3.125 -4.09375 L 6.6875 -4.09375 L 4.921875 -8.3125 Z M 1.90625 -10.5625 Z M 1.90625 -10.5625 "/></g></g></g><g fill="#f8f7f0" fill-opacity="1"><g transform="translate(196.331311, 271.785275)"><g/></g></g><g fill="#f8f7f0" fill-opacity="1"><g transform="translate(204.14089, 271.785275)"><g><path d="M 3.296875 -10.5625 L 3.296875 -1.6875 C 3.296875 -0.800781 3.078125 -0.117188 2.640625 0.359375 C 2.210938 0.847656 1.648438 1.09375 0.953125 1.09375 C 0.597656 1.09375 0.265625 1.015625 -0.046875 0.859375 C -0.359375 0.710938 -0.648438 0.53125 -0.921875 0.3125 L -0.265625 -0.609375 C -0.015625 -0.367188 0.195312 -0.207031 0.375 -0.125 C 0.550781 -0.0390625 0.753906 0 0.984375 0 C 1.390625 0 1.679688 -0.164062 1.859375 -0.5 C 2.035156 -0.84375 2.125 -1.359375 2.125 -2.046875 L 2.125 -10.5625 Z M 3.296875 -10.5625 "/></g></g></g><g fill="#f8f7f0" fill-opacity="1"><g transform="translate(212.034429, 271.785275)"><g><path d="M 2.265625 -10.5625 L 2.265625 0 L 1.09375 0 L 1.09375 -10.5625 Z M 2.265625 -10.5625 "/></g></g></g><g fill="#f8f7f0" fill-opacity="1"><g transform="translate(218.878556, 271.785275)"><g><path d="M 2.4375 -11.15625 L 6.265625 -2.296875 L 10.125 -11.15625 L 12.265625 0 L 11.0625 0 L 9.703125 -7.140625 L 9.671875 -7.140625 L 6.265625 0.4375 L 2.890625 -7.140625 L 2.859375 -7.140625 L 1.5 0 L 0.296875 0 Z M 0.59375 -10.5625 Z M 0.59375 -10.5625 "/></g></g></g><g fill="#f8f7f0" fill-opacity="1"><g transform="translate(234.915539, 271.785275)"><g><path d="M 6.53125 -10.5625 L 6.53125 -9.46875 L 2.234375 -9.46875 L 2.234375 -6.328125 L 6.40625 -6.328125 L 6.40625 -5.234375 L 2.234375 -5.234375 L 2.234375 -1.09375 L 6.53125 -1.09375 L 6.53125 0 L 1.0625 0 L 1.0625 -10.5625 Z M 6.53125 -10.5625 "/></g></g></g><g fill="#f8f7f0" fill-opacity="1"><g transform="translate(245.887355, 271.785275)"><g><path d="M 1.140625 -11 L 9.359375 -2.375 L 9.359375 -10.5625 L 10.546875 -10.5625 L 10.546875 0.46875 L 2.3125 -8.140625 L 2.3125 0 L 1.140625 0 Z M 1.140625 -11 "/></g></g></g><g fill="#f8f7f0" fill-opacity="1"><g transform="translate(261.056818, 271.785275)"><g><path d="M 6.53125 -10.5625 L 6.53125 -9.46875 L 2.234375 -9.46875 L 2.234375 -6.328125 L 6.40625 -6.328125 L 6.40625 -5.234375 L 2.234375 -5.234375 L 2.234375 -1.09375 L 6.53125 -1.09375 L 6.53125 0 L 1.0625 0 L 1.0625 -10.5625 Z M 6.53125 -10.5625 "/></g></g></g><g fill="#f8f7f0" fill-opacity="1"><g transform="translate(272.028635, 271.785275)"><g><path d="M 7.90625 -10.5625 L 2.140625 -1.09375 L 7.75 -1.09375 L 7.75 0 L 0.203125 0 L 5.953125 -9.46875 L 0.921875 -9.46875 L 0.921875 -10.5625 Z M 7.90625 -10.5625 "/></g></g></g></svg>